<?xml version="1.0" encoding="UTF-8" standalone="no"?>
<svg width="246px" height="134px" viewBox="0 0 246 134" version="1.1" xmlns="http://www.w3.org/2000/svg" xmlns:xlink="http://www.w3.org/1999/xlink" xmlns:sketch="http://www.bohemiancoding.com/sketch/ns">
    <!-- Generator: Sketch 3.1.1 (8761) - http://www.bohemiancoding.com/sketch -->
    <title>Fill 5</title>
    <desc>Created with Sketch.</desc>
    <defs></defs>
    <g id="Page-1" stroke="none" stroke-width="1" fill="none" fill-rule="evenodd" sketch:type="MSPage">
        <path d="M178.151,133.723 C145.001,133.722 127.136,106.651 126.984,105.463 L146.181,72.944 C146.181,72.944 155.427,92.26 165.681,97.873 C169.773,100.112 174.526,101.152 179.29,101.152 C182.899,101.152 186.514,100.555 189.85,99.429 C206.842,93.665 212.375,73.847 208.951,57.702 C207.29,49.891 203.162,42.553 196.442,38.018 C191.576,34.73 185.98,33.258 180.243,33.258 C178.115,33.258 175.968,33.461 173.832,33.848 C151.906,37.793 145.025,69.707 123.189,100.347 C112.905,114.791 101.459,126.887 81.013,131.846 C76.427,132.955 71.702,133.486 66.955,133.486 C52.406,133.486 37.663,128.49 26.205,119.781 C12.27,109.19 2.884,93.199 0.586,75.822 C-1.767,58.099 3.276,39.894 14.416,25.916 C25.355,12.203 41.549,2.857 59.032,1.313 C60.994,1.14 62.913,1.058 64.79,1.058 C98.015,1.058 117.771,26.742 120.213,29.956 L102.462,61.256 C94.658,46.622 78.228,33.93 62.954,33.93 C58.793,33.93 54.714,34.873 50.923,36.976 C35.768,45.383 32.405,66.644 38.226,81.85 C44.018,96.998 56.073,100.815 65.644,100.814 C70.439,100.814 74.611,99.856 77.059,98.885 C93.598,92.34 97.08,81.616 103.264,70.551 C120.147,40.354 135.39,0.918 177.721,0.918 C178.366,0.918 179.019,0.928 179.677,0.946 C190.712,1.249 201.699,3.743 211.374,9.051 C226.625,17.407 238.227,31.745 243.149,48.425 C248.224,65.65 245.966,84.616 236.951,100.149 C228.235,115.198 213.544,126.185 196.817,130.99 C190.141,132.905 183.916,133.723 178.151,133.723" id="Fill-5" fill="#FFFFFF" sketch:type="MSShapeGroup"></path>
    </g>
</svg>