
<svg xmlns="http://www.w3.org/2000/svg" width="120" height="120" viewBox="0 0 120 120">
<path d="M120 108c0 6.627-5.373 12-12 12h-96c-6.627 0-12-5.373-12-12v-96c0-6.627 5.373-12 12-12h96c6.627 0 12 5.373 12 12v96z" fill-rule="evenodd" clip-rule="evenodd" fill="#B8C3CE"/>
<g fill-rule="evenodd" clip-rule="evenodd" fill="#A4AFBA">
</g>
<path d="M89.999 85c0-2-.856-5.072-4-8-6.113-5.691-21.869-10.031-18-15 3-3.851 7-8.007 7-14 0-6.972-5.064-16-15-16-9.969 0-15 9.028-15 16 0 5.911 3.924 10.094 7 14 3.873 4.919-12.034 9.045-18 15-3.076 3.07-4 6.062-4 8 0 2.812 3 3 3 3h54s3-.125 3-3z" fill-rule="evenodd" clip-rule="evenodd" fill="#DEE4EA"/>
  

</svg>