<?xml version="1.0" encoding="utf-8"?>
<!-- Generator: Adobe Illustrator 17.1.0, SVG Export Plug-In . SVG Version: 6.00 Build 0)  -->
<!DOCTYPE svg PUBLIC "-//W3C//DTD SVG 1.1//EN" "http://www.w3.org/Graphics/SVG/1.1/DTD/svg11.dtd">
<svg version="1.1" id="Isolation_Mode" xmlns="http://www.w3.org/2000/svg" xmlns:xlink="http://www.w3.org/1999/xlink" x="0px"
	 y="0px" viewBox="126 54 36 36" enable-background="new 126 54 36 36" xml:space="preserve">
<path fill="#00A1DF" d="M141,62.2c1.2-1.2,2.8-1.9,4.5-1.9c2.3,0,4.4,1.3,5.5,3.3c1-0.4,2-0.7,3.1-0.7c4.2,0,7.7,3.5,7.7,7.8
	c0,4.3-3.4,7.8-7.7,7.8c-0.5,0-1-0.1-1.5-0.2c-1,1.7-2.8,2.9-4.9,2.9c-0.9,0-1.7-0.2-2.5-0.6c-1,2.3-3.3,3.9-5.9,3.9
	c-2.8,0-5.1-1.7-6-4.2c-0.4,0.1-0.8,0.1-1.2,0.1c-3.3,0-6-2.7-6-6c0-2.2,1.2-4.2,3-5.2c-0.4-0.8-0.6-1.8-0.6-2.8
	c0-3.8,3.1-6.9,6.9-6.9C137.7,59.5,139.7,60.6,141,62.2z"/>
</svg>
