<?xml version="1.0" encoding="utf-8"?>
<!-- Generator: Adobe Illustrator 17.1.0, SVG Export Plug-In . SVG Version: 6.00 Build 0)  -->
<!DOCTYPE svg PUBLIC "-//W3C//DTD SVG 1.1//EN" "http://www.w3.org/Graphics/SVG/1.1/DTD/svg11.dtd">
<svg version="1.1" id="Isolation_Mode" xmlns="http://www.w3.org/2000/svg" xmlns:xlink="http://www.w3.org/1999/xlink" x="0px"
	 y="0px" viewBox="126 54 36 36" enable-background="new 126 54 36 36" xml:space="preserve">
<path fill="#FFFFFF" d="M141,62.2c1.2-1.2,2.8-2,4.6-2c2.4,0,4.4,1.3,5.6,3.3c1-0.4,2-0.7,3.1-0.7c4.3,0,7.8,3.5,7.8,7.8
	c0,4.3-3.5,7.8-7.8,7.8c-0.5,0-1-0.1-1.5-0.2c-1,1.7-2.8,2.9-5,2.9c-0.9,0-1.7-0.2-2.5-0.6c-1,2.3-3.3,3.9-6,3.9
	c-2.8,0-5.2-1.8-6.1-4.2c-0.4,0.1-0.8,0.1-1.2,0.1c-3.3,0-6-2.7-6-6.1c0-2.2,1.2-4.2,3-5.3c-0.4-0.8-0.6-1.8-0.6-2.8
	c0-3.9,3.1-7,7-7C137.7,59.4,139.7,60.5,141,62.2z"/>
</svg>
