<?xml version="1.0" encoding="utf-8"?>
<!-- Generator: Adobe Illustrator 17.1.0, SVG Export Plug-In . SVG Version: 6.00 Build 0)  -->
<!DOCTYPE svg PUBLIC "-//W3C//DTD SVG 1.1//EN" "http://www.w3.org/Graphics/SVG/1.1/DTD/svg11.dtd">
<svg version="1.1" id="email" xmlns="http://www.w3.org/2000/svg" xmlns:xlink="http://www.w3.org/1999/xlink" x="0px" y="0px"
	 viewBox="126 54 36 36" enable-background="new 126 54 36 36" xml:space="preserve">
<g>
	<g>
		<path fill="#FFFFFF" d="M152.5,75l8,9.2v2.6c0,1.9-0.7,2.4-2.5,2.4h-29.2c-1.9,0-2.5-0.6-2.5-2.4v-2.6l7.9-9.2l6.2,5
			c0.8,0.7,1.9,1.1,3,1.1c1.1,0,2.2-0.4,3-1.1L152.5,75z"/>
		<path fill="#FFFFFF" d="M152.4,72.8"/>
		<path fill="#FFFFFF" d="M145.7,78.1c-0.6,0.5-1.4,0.9-2.3,0.9c-0.8,0-1.6-0.3-2.2-0.8c-2-1.7-14.9-12.1-14.9-12.1v-2.5
			c0-1.9,0.7-2.6,2.6-2.6h29.1c1.9,0,2.6,0.7,2.6,2.6v2.6C160.6,66.1,147.9,76.2,145.7,78.1z"/>
		<polygon fill="#FFFFFF" points="126.2,68.6 132.7,73.7 126.3,81.1 		"/>
		<polygon fill="#FFFFFF" points="160.4,68.5 160.4,81.6 154,73.7 		"/>
	</g>
	<g>
		<path fill="#DB9D0C" d="M161.9,64.6c0.1,0.3,0.1,0.6,0,0.9c-0.1,0.3-0.5,0.4-0.8,0.4H150c-0.3,0-0.6-0.2-0.8-0.4
			c-0.1-0.3-0.2-0.6,0-0.9l5.6-10.2c0.1-0.3,0.5-0.5,0.8-0.5c0.3,0,0.7,0.2,0.8,0.5L161.9,64.6z"/>
		<path fill="#FFFFFF" d="M156.6,57.9c0,0,0-0.1-0.1-0.1c0,0-0.1-0.1-0.2-0.1h-1.6c0,0-0.1,0-0.2,0.1c0,0-0.1,0.1-0.1,0.1l0.1,3.3
			c0,0.1,0.1,0.1,0.2,0.1h1.3c0.1,0,0.2-0.1,0.2-0.1L156.6,57.9z"/>
		<path fill="#FFFFFF" d="M156.5,62.5c0-0.1-0.1-0.2-0.2-0.2h-1.4c-0.1,0-0.2,0.1-0.2,0.2v1.4c0,0.1,0.1,0.2,0.2,0.2h1.4
			c0.1,0,0.2-0.1,0.2-0.2V62.5z"/>
	</g>
</g>
</svg>
