<?xml version="1.0" encoding="utf-8"?>
<!-- Generator: Adobe Illustrator 17.1.0, SVG Export Plug-In . SVG Version: 6.00 Build 0)  -->
<!DOCTYPE svg PUBLIC "-//W3C//DTD SVG 1.1//EN" "http://www.w3.org/Graphics/SVG/1.1/DTD/svg11.dtd">
<svg version="1.1" id="email" xmlns="http://www.w3.org/2000/svg" xmlns:xlink="http://www.w3.org/1999/xlink" x="0px" y="0px"
	 viewBox="126 54 36 36" enable-background="new 126 54 36 36" xml:space="preserve">
<g>
	<g>
		<path fill="#FFFFFF" d="M152.1,74.8l7.9,9.1v2.6c0,1.8-0.7,2.4-2.5,2.4h-28.9c-1.8,0-2.5-0.6-2.5-2.4v-2.6l7.8-9.1l6.1,5
			c0.8,0.7,1.8,1,2.9,1c1.1,0,2.2-0.4,3-1.1L152.1,74.8z"/>
		<path fill="#FFFFFF" d="M152,72.6"/>
		<path fill="#FFFFFF" d="M145.3,77.8c-0.6,0.5-1.4,0.9-2.3,0.9c-0.8,0-1.6-0.3-2.2-0.8c-1.9-1.7-14.8-12-14.8-12v-2.5
			c0-1.9,0.7-2.6,2.6-2.6h28.8c1.9,0,2.6,0.7,2.6,2.6V66C160.1,65.9,147.5,76,145.3,77.8z"/>
		<polygon fill="#FFFFFF" points="126.1,68.5 132.5,73.5 126.1,80.8 		"/>
		<polygon fill="#FFFFFF" points="159.9,68.3 159.9,81.3 153.6,73.5 		"/>
	</g>
	<circle fill="#C95149" cx="154.8" cy="61.2" r="7.2"/>
	<path fill="#FFFFFF" d="M158.2,63.7c0.2-0.2,0.2-0.6,0-0.9l-1.7-1.7l1.7-1.7c0.2-0.2,0.2-0.6,0-0.9l-0.9-0.9
		c-0.2-0.2-0.6-0.2-0.9,0l-1.7,1.7l-1.7-1.7c-0.2-0.2-0.6-0.2-0.9,0l-0.9,0.9c-0.2,0.2-0.2,0.6,0,0.9l1.7,1.7l-1.7,1.7
		c-0.2,0.2-0.2,0.6,0,0.9l0.9,0.9c0.2,0.2,0.6,0.2,0.9,0l1.7-1.7l1.7,1.7c0.2,0.2,0.6,0.2,0.9,0L158.2,63.7z"/>
</g>
</svg>
