<?xml version="1.0" encoding="utf-8"?>
<!-- Generator: Adobe Illustrator 17.1.0, SVG Export Plug-In . SVG Version: 6.00 Build 0)  -->
<!DOCTYPE svg PUBLIC "-//W3C//DTD SVG 1.1//EN" "http://www.w3.org/Graphics/SVG/1.1/DTD/svg11.dtd">
<svg version="1.1" id="email" xmlns="http://www.w3.org/2000/svg" xmlns:xlink="http://www.w3.org/1999/xlink" x="0px" y="0px"
	 viewBox="126 54 36 36" enable-background="new 126 54 36 36" xml:space="preserve">
<g>
	<g>
		<path fill="#FFFFFF" d="M152.1,74.8l7.9,9.1v2.6c0,1.9-0.7,2.4-2.5,2.4h-29c-1.9,0-2.5-0.6-2.5-2.4v-2.6l7.8-9.1l6.1,5
			c0.8,0.7,1.9,1,2.9,1c1.1,0,2.2-0.4,3-1.1L152.1,74.8z"/>
		<path fill="#FFFFFF" d="M152,72.6"/>
		<path fill="#FFFFFF" d="M145.3,77.9c-0.6,0.5-1.4,0.9-2.3,0.9c-0.8,0-1.6-0.3-2.2-0.8c-2-1.7-14.8-12-14.8-12v-2.5
			c0-1.9,0.7-2.6,2.6-2.6h28.9c1.9,0,2.6,0.7,2.6,2.6V66C160.1,65.9,147.5,76,145.3,77.9z"/>
		<polygon fill="#FFFFFF" points="126,68.5 132.4,73.5 126,80.9 		"/>
		<polygon fill="#FFFFFF" points="160,68.3 160,81.4 153.6,73.5 		"/>
	</g>
	<g>
		<path fill="#5485A3" d="M161,57.5c0.7,1.1,1,2.3,1,3.6c0,1.3-0.3,2.5-1,3.6c-0.6,1.1-1.5,2-2.6,2.6c-1.1,0.7-2.3,1-3.6,1
			c-1.3,0-2.5-0.3-3.6-1c-1.1-0.6-2-1.5-2.7-2.6c-0.7-1.1-1-2.3-1-3.6c0-1.3,0.3-2.5,1-3.6c0.6-1.1,1.5-2,2.6-2.6
			c1.1-0.6,2.3-1,3.6-1c1.3,0,2.5,0.3,3.6,1C159.5,55.6,160.4,56.4,161,57.5z"/>
		<path fill="#FFFFFF" d="M159.7,59.7c0-0.2,0-0.3-0.2-0.4l-0.9-0.9c-0.1-0.1-0.2-0.2-0.4-0.2c-0.1,0-0.3,0-0.4,0.2l-3.9,3.8
			l-2.1-2.1c-0.1-0.1-0.2-0.2-0.4-0.2c-0.1,0-0.3,0-0.4,0.2l-0.9,0.9c-0.1,0.1-0.2,0.2-0.2,0.4c0,0.2,0,0.3,0.2,0.4l3.4,3.4
			c0.1,0.1,0.2,0.1,0.4,0.1s0.3,0,0.4-0.2l5.1-5.1C159.6,59.9,159.7,59.8,159.7,59.7z"/>
	</g>
</g>
</svg>
