<?xml version="1.0" encoding="utf-8"?>
<!-- Generator: Adobe Illustrator 17.1.0, SVG Export Plug-In . SVG Version: 6.00 Build 0)  -->
<!DOCTYPE svg PUBLIC "-//W3C//DTD SVG 1.1//EN" "http://www.w3.org/Graphics/SVG/1.1/DTD/svg11.dtd">
<svg version="1.1" id="email" xmlns="http://www.w3.org/2000/svg" xmlns:xlink="http://www.w3.org/1999/xlink" x="0px" y="0px"
	 viewBox="0 0 36 36" enable-background="new 0 0 36 36" xml:space="preserve">
<g>
	<path fill="#FFFFFF" d="M27.7,18l8.4,9.7v2.8c0,2-0.7,2.5-2.6,2.5H2.7c-2,0-2.6-0.6-2.6-2.6l0-2.7L8.4,18l6.5,5.3
		c0.9,0.7,2,1.1,3.1,1.1c1.2,0,2.3-0.4,3.2-1.1L27.7,18z"/>
	<path fill="#FFFFFF" d="M27.6,15.6"/>
	<path fill="#FFFFFF" d="M20.5,21.2c-0.6,0.6-1.5,0.9-2.4,0.9c-0.9,0-1.7-0.3-2.3-0.8C13.7,19.6,0.1,8.6,0.1,8.6l0-2.7
		c0-2,0.7-2.7,2.7-2.7h30.6c2,0,2.7,0.7,2.7,2.7v2.7C36.1,8.6,22.9,19.3,20.5,21.2z"/>
	<polygon fill="#FFFFFF" points="0,11.3 6.8,16.7 0.1,24.4 	"/>
	<polygon fill="#FFFFFF" points="36,11.1 36,25 29.2,16.7 	"/>
</g>
</svg>
