<?xml version="1.0" encoding="utf-8"?>
<!-- Generator: Adobe Illustrator 17.1.0, SVG Export Plug-In . SVG Version: 6.00 Build 0)  -->
<!DOCTYPE svg PUBLIC "-//W3C//DTD SVG 1.1//EN" "http://www.w3.org/Graphics/SVG/1.1/DTD/svg11.dtd">
<svg version="1.1" id="email" xmlns="http://www.w3.org/2000/svg" xmlns:xlink="http://www.w3.org/1999/xlink" x="0px" y="0px"
	 viewBox="126 54 36 36" enable-background="new 126 54 36 36" xml:space="preserve">
<g>
	<g>
		<path fill="#FFFFFF" d="M151.6,74.7l7.7,8.9v2.6c0,1.8-0.7,2.3-2.4,2.3h-28.4c-1.8,0-2.4-0.6-2.4-2.4v-2.5l7.7-8.9l6,4.9
			c0.8,0.7,1.8,1,2.9,1c1.1,0,2.1-0.4,2.9-1.1L151.6,74.7z"/>
		<path fill="#FFFFFF" d="M151.5,72.6"/>
		<path fill="#FFFFFF" d="M144.9,77.7c-0.6,0.5-1.4,0.9-2.2,0.9c-0.8,0-1.5-0.3-2.1-0.8C138.6,76.2,126,66,126,66v-2.5
			c0-1.9,0.7-2.5,2.5-2.5h28.3c1.9,0,2.5,0.7,2.5,2.5v2.5C159.4,66,147.1,75.9,144.9,77.7z"/>
		<polygon fill="#FFFFFF" points="126,68.5 132.3,73.5 126.1,80.7 		"/>
		<polygon fill="#FFFFFF" points="159.3,68.4 159.3,81.2 153.1,73.5 		"/>
	</g>
	<circle fill="#931616" cx="154.9" cy="61.1" r="7.1"/>
	<path fill="#FFFFFF" d="M156.3,56.6c0,0,0-0.1-0.1-0.2c0,0-0.1-0.1-0.2-0.1h-2.1c-0.1,0-0.2,0-0.2,0.1c0,0-0.1,0.1-0.1,0.2l0.1,5.7
		c0,0.1,0.2,0.2,0.4,0.2h1.7c0.2,0,0.3-0.1,0.3-0.2L156.3,56.6z"/>
	<path fill="#FFFFFF" d="M156.1,63.7c0-0.2-0.1-0.3-0.3-0.3H154c-0.2,0-0.3,0.1-0.3,0.3v1.8c0,0.2,0.2,0.3,0.3,0.3h1.8
		c0.1,0,0.3-0.1,0.3-0.3C156.1,65.5,156.1,63.7,156.1,63.7z"/>
</g>
</svg>
