<?xml version="1.0" encoding="utf-8"?>
<!-- Generator: Adobe Illustrator 17.1.0, SVG Export Plug-In . SVG Version: 6.00 Build 0)  -->
<!DOCTYPE svg PUBLIC "-//W3C//DTD SVG 1.1//EN" "http://www.w3.org/Graphics/SVG/1.1/DTD/svg11.dtd">
<svg version="1.1" id="email" xmlns="http://www.w3.org/2000/svg" xmlns:xlink="http://www.w3.org/1999/xlink" x="0px" y="0px"
	 viewBox="126 54 36 36" enable-background="new 126 54 36 36" xml:space="preserve">
<g>
	<g>
		<path fill="#FFFFFF" d="M152.4,75l8,9.2v2.6c0,1.9-0.7,2.4-2.5,2.4h-29.2c-1.9,0-2.5-0.6-2.5-2.4v-2.6l7.9-9.2l6.2,5
			c0.8,0.7,1.9,1.1,3,1.1c1.1,0,2.2-0.4,3-1.1L152.4,75z"/>
		<path fill="#FFFFFF" d="M152.3,72.8"/>
		<path fill="#FFFFFF" d="M145.6,78.1c-0.6,0.5-1.4,0.9-2.3,0.9c-0.8,0-1.6-0.3-2.2-0.8c-2-1.7-14.9-12.1-14.9-12.1v-2.5
			c0-1.9,0.7-2.6,2.6-2.6h29.1c1.9,0,2.6,0.7,2.6,2.6v2.6C160.5,66.1,147.8,76.3,145.6,78.1z"/>
		<polygon fill="#FFFFFF" points="126.1,68.7 132.6,73.8 126.2,81.2 		"/>
		<polygon fill="#FFFFFF" points="160.3,68.5 160.3,81.7 153.9,73.8 		"/>
	</g>
	<path fill="#5485A3" d="M154.7,68.7c-4,0-7.3-3.3-7.3-7.3s3.3-7.3,7.3-7.3c4.1,0,7.3,3.3,7.3,7.4S158.7,68.7,154.7,68.7z"/>
	<path fill="#FFFFFF" d="M159.5,60.9l-0.9-0.9l-3.4-3.4c-0.1-0.1-0.3-0.2-0.4-0.2s-0.3,0-0.4,0.2l-0.9,0.9c-0.1,0.1-0.2,0.3-0.2,0.4
		s0,0.3,0.2,0.4l1.8,1.8h-4.8c-0.3,0-0.6,0.3-0.6,0.6V62c0,0.3,0.3,0.6,0.6,0.6h4.8l-1.8,1.8c-0.1,0.1-0.2,0.3-0.2,0.4
		c0,0.1,0,0.3,0.2,0.4l0.9,0.8c0.1,0.1,0.3,0.2,0.4,0.2s0.3,0,0.4-0.2l3.4-3.4l0.9-0.9c0.1-0.1,0.2-0.3,0.2-0.4S159.6,61,159.5,60.9
		z"/>
</g>
</svg>
