<?xml version="1.0" encoding="utf-8"?>
<!-- Generator: Adobe Illustrator 17.1.0, SVG Export Plug-In . SVG Version: 6.00 Build 0)  -->
<!DOCTYPE svg PUBLIC "-//W3C//DTD SVG 1.1//EN" "http://www.w3.org/Graphics/SVG/1.1/DTD/svg11.dtd">
<svg version="1.1" id="email" xmlns="http://www.w3.org/2000/svg" xmlns:xlink="http://www.w3.org/1999/xlink" x="0px" y="0px"
	 viewBox="126 54 36 36" enable-background="new 126 54 36 36" xml:space="preserve">
<g>
	<g>
		<path fill="#FFFFFF" d="M152.1,74.8l7.9,9.1v2.6c0,1.8-0.7,2.4-2.5,2.4h-28.8c-1.8,0-2.5-0.6-2.5-2.4v-2.6l7.8-9.1l6.1,5
			c0.8,0.7,1.8,1,2.9,1c1.1,0,2.2-0.4,3-1.1L152.1,74.8z"/>
		<path fill="#FFFFFF" d="M152,72.6"/>
		<path fill="#FFFFFF" d="M145.3,77.9c-0.6,0.5-1.4,0.9-2.3,0.9c-0.8,0-1.6-0.3-2.2-0.8c-1.9-1.7-14.8-12-14.8-12v-2.5
			c0-1.9,0.7-2.6,2.6-2.6h28.7c1.9,0,2.6,0.7,2.6,2.6V66C160.1,66,147.6,76,145.3,77.9z"/>
		<polygon fill="#FFFFFF" points="126.1,68.5 132.5,73.5 126.2,80.8 		"/>
		<polygon fill="#FFFFFF" points="159.9,68.3 159.9,81.4 153.6,73.5 		"/>
	</g>
	<g>
		<circle fill="#5485A3" cx="154.8" cy="61.2" r="7.2"/>
		<g>
			<path fill="#FFFFFF" d="M159.4,61.9c0,0.1-0.1,0.2-0.2,0.2l-1.1,0.2c0,0.2-0.1,0.4-0.2,0.6c0.2,0.3,0.4,0.6,0.7,0.9
				c0,0,0,0.1,0,0.1s0,0.1,0,0.1c-0.1,0.2-0.9,1.1-1.2,1.1c0,0-0.1,0-0.1,0l-0.9-0.7c-0.2,0.1-0.4,0.2-0.6,0.2c0,0.3,0,0.7-0.1,1.1
				c0,0.1-0.1,0.2-0.2,0.2h-1.3c-0.1,0-0.2-0.1-0.2-0.2l-0.2-1.1c-0.2,0-0.4-0.1-0.5-0.2l-0.9,0.7c0,0-0.1,0-0.1,0s-0.1,0-0.1,0
				c-0.3-0.3-0.8-0.7-1-1c0,0,0-0.1,0-0.1c0,0,0-0.1,0-0.1c0.2-0.3,0.4-0.5,0.6-0.8c-0.1-0.2-0.2-0.4-0.2-0.6l-1.1-0.1
				c-0.1,0-0.2-0.1-0.2-0.2v-1.3c0-0.1,0.1-0.2,0.1-0.2l1.1-0.2c0-0.2,0.1-0.4,0.2-0.6c-0.2-0.3-0.4-0.6-0.7-0.9c0,0,0-0.1,0-0.1
				c0,0,0-0.1,0-0.1c0.1-0.2,0.9-1.1,1.2-1.1c0,0,0.1,0,0.1,0l0.9,0.7c0.2-0.1,0.4-0.2,0.6-0.2c0-0.4,0.1-0.8,0.2-1.1
				c0-0.1,0.1-0.2,0.2-0.2h1.3c0.1,0,0.2,0.1,0.2,0.2l0.2,1.1c0.2,0,0.4,0.1,0.5,0.2l0.9-0.7c0,0,0.1,0,0.1,0s0.1,0,0.1,0
				c0.3,0.3,0.8,0.7,1,1c0,0,0,0.1,0,0.1c0,0,0,0.1,0,0.1c-0.2,0.3-0.4,0.5-0.6,0.8c0.1,0.2,0.2,0.4,0.2,0.6l1.1,0.2
				c0.1,0,0.2,0.1,0.2,0.2L159.4,61.9L159.4,61.9z M154.8,59.6c-0.9,0-1.6,0.7-1.6,1.6c0,0.9,0.7,1.6,1.6,1.6c0.9,0,1.6-0.7,1.6-1.6
				C156.4,60.3,155.7,59.6,154.8,59.6z"/>
		</g>
	</g>
</g>
</svg>
