<?xml version="1.0" encoding="utf-8"?>
<!-- Generator: Adobe Illustrator 17.1.0, SVG Export Plug-In . SVG Version: 6.00 Build 0)  -->
<!DOCTYPE svg PUBLIC "-//W3C//DTD SVG 1.1//EN" "http://www.w3.org/Graphics/SVG/1.1/DTD/svg11.dtd">
<svg version="1.1" id="Layer_1" xmlns="http://www.w3.org/2000/svg" xmlns:xlink="http://www.w3.org/1999/xlink" x="0px" y="0px"
	 viewBox="42 42 36 36" enable-background="new 42 42 36 36" xml:space="preserve">
<g>
	<path fill="#FDF9F3" d="M45.7,42.1c-1.6,0-2.7,1.1-2.7,2.7v30.5c0,1.6,1.1,2.7,2.7,2.7h28.7c1.6,0,2.7-1.1,2.7-2.7V53.7L65.4,42.1
		H45.7z"/>
	<g>
		<path fill="#D0C1A6" d="M49.3,49.5H60v4H49.3V49.5z M49.3,58h21.5v4H49.3V58z M49.3,66.5h21.5v4H49.3
			C49.3,70.5,49.3,66.5,49.3,66.5z"/>
	</g>
	<path fill="#EDE0C9" d="M65.4,42.1L65.4,42.1v8.5c0,1.8,1.4,3.1,3.1,3.1H77C77,53.7,65.4,42.1,65.4,42.1z"/>
</g>
</svg>
