<?xml version="1.0" encoding="utf-8"?>
<!-- Generator: Adobe Illustrator 17.1.0, SVG Export Plug-In . SVG Version: 6.00 Build 0)  -->
<!DOCTYPE svg PUBLIC "-//W3C//DTD SVG 1.1//EN" "http://www.w3.org/Graphics/SVG/1.1/DTD/svg11.dtd">
<svg version="1.1" id="email" xmlns="http://www.w3.org/2000/svg" xmlns:xlink="http://www.w3.org/1999/xlink" x="0px" y="0px"
	 viewBox="126 54 36 36" enable-background="new 126 54 36 36" xml:space="preserve">
<g>
	<path fill="#FFFFFF" d="M131.5,58.7v3.8c0,0.2-0.1,0.3-0.2,0.5c-0.1,0.1-0.3,0.1-0.4,0.1H127c-0.2,0-0.3,0-0.4-0.2
		c-0.1-0.2-0.2-0.2-0.2-0.4v-3.8c0-0.2,0.1-0.3,0.2-0.4c0.1-0.2,0.2-0.3,0.4-0.3h3.8c0.2,0,0.4,0.1,0.5,0.2
		C131.4,58.3,131.5,58.5,131.5,58.7z M131.5,66.2V70c0,0.2-0.1,0.3-0.2,0.4s-0.3,0.2-0.5,0.2H127c-0.2,0-0.3-0.1-0.5-0.2
		c-0.1-0.1-0.2-0.3-0.2-0.4v-3.8c0-0.2,0.1-0.3,0.2-0.4c0.1-0.1,0.3-0.2,0.5-0.2h3.8c0.2,0,0.3,0.1,0.5,0.2
		C131.4,66,131.5,66.1,131.5,66.2z M131.5,73.9v3.8c0,0.2-0.1,0.3-0.2,0.4c-0.1,0.1-0.3,0.2-0.5,0.2H127c-0.2,0-0.3-0.1-0.5-0.2
		c-0.1-0.1-0.2-0.3-0.2-0.4v-3.8c0-0.2,0.1-0.3,0.2-0.5c0.1-0.1,0.3-0.2,0.5-0.2h3.8c0.2,0,0.3,0.1,0.5,0.2
		C131.4,73.6,131.5,73.7,131.5,73.9z M131.5,81.5v3.8c0,0.2-0.1,0.3-0.2,0.5c-0.1,0.1-0.3,0.2-0.5,0.2H127c-0.2,0-0.3-0.1-0.5-0.2
		c-0.2-0.1-0.2-0.3-0.2-0.5v-3.8c0-0.2,0.1-0.3,0.2-0.5c0.2-0.1,0.3-0.1,0.5-0.1h3.8c0.2,0,0.4,0,0.5,0.2
		C131.4,81.2,131.5,81.3,131.5,81.5z M161.9,58.7v3.8c0,0.2-0.1,0.3-0.2,0.5c-0.1,0.1-0.2,0.1-0.4,0.1h-26.7c-0.2,0-0.3,0-0.5-0.2
		c-0.1-0.1-0.1-0.2-0.1-0.4v-3.8c0-0.2,0.1-0.3,0.2-0.4c0.1-0.2,0.2-0.3,0.4-0.3h26.7c0.2,0,0.3,0.1,0.5,0.2
		C161.9,58.3,161.9,58.5,161.9,58.7z M161.9,66.2V70c0,0.2-0.1,0.3-0.2,0.4s-0.3,0.2-0.5,0.2h-26.6c-0.2,0-0.3-0.1-0.4-0.2
		S134,70.1,134,70v-3.8c0-0.2,0.1-0.3,0.2-0.4c0.1-0.1,0.3-0.2,0.4-0.2h26.7c0.2,0,0.3,0.1,0.5,0.2C161.9,66,161.9,66.1,161.9,66.2z
		 M161.9,73.9v3.8c0,0.2-0.1,0.3-0.2,0.4c-0.1,0.1-0.3,0.2-0.5,0.2h-26.6c-0.2,0-0.3-0.1-0.4-0.2c-0.1-0.1-0.2-0.3-0.2-0.4v-3.8
		c0-0.2,0.1-0.3,0.2-0.5c0.1-0.1,0.3-0.2,0.4-0.2h26.7c0.2,0,0.3,0.1,0.5,0.2C161.9,73.6,161.9,73.7,161.9,73.9z M161.9,81.5v3.8
		c0,0.2-0.1,0.3-0.2,0.5c-0.1,0.1-0.3,0.2-0.5,0.2h-26.6c-0.2,0-0.3-0.1-0.4-0.2s-0.2-0.3-0.2-0.5v-3.8c0-0.2,0.1-0.3,0.2-0.5
		c0.1-0.1,0.2-0.1,0.4-0.1h26.7c0.2,0,0.3,0.1,0.5,0.2C161.9,81.2,161.9,81.3,161.9,81.5z"/>
</g>
</svg>
