<?xml version="1.0" encoding="utf-8"?>
<!-- Generator: Adobe Illustrator 17.1.0, SVG Export Plug-In . SVG Version: 6.00 Build 0)  -->
<!DOCTYPE svg PUBLIC "-//W3C//DTD SVG 1.1//EN" "http://www.w3.org/Graphics/SVG/1.1/DTD/svg11.dtd">
<svg version="1.1" id="email" xmlns="http://www.w3.org/2000/svg" xmlns:xlink="http://www.w3.org/1999/xlink" x="0px" y="0px"
	 viewBox="126 54 36 36" enable-background="new 126 54 36 36" xml:space="preserve">
<g>
	<g>
		<path fill="#FFFFFF" d="M131,62.2v3.6c0,0.2-0.1,0.3-0.2,0.5c-0.1,0.1-0.3,0.1-0.4,0.1h-3.7c-0.2,0-0.3,0-0.4-0.2
			c-0.1-0.2-0.2-0.2-0.2-0.4v-3.6c0-0.2,0.1-0.3,0.2-0.4c0.1-0.2,0.2-0.3,0.4-0.3h3.6c0.2,0,0.4,0.1,0.5,0.2S131,62.1,131,62.2z
			 M131,69.4V73c0,0.2-0.1,0.3-0.2,0.4c-0.1,0.1-0.3,0.2-0.5,0.2h-3.6c-0.2,0-0.3-0.1-0.5-0.2c-0.1-0.1-0.2-0.3-0.2-0.4v-3.6
			c0-0.2,0.1-0.3,0.2-0.4c0.1-0.1,0.3-0.2,0.5-0.2h3.6c0.2,0,0.3,0.1,0.5,0.2C130.9,69.1,131,69.3,131,69.4z M131,76.7v3.6
			c0,0.2-0.1,0.3-0.2,0.4c-0.1,0.1-0.3,0.2-0.5,0.2h-3.6c-0.2,0-0.3-0.1-0.5-0.2c-0.1-0.1-0.2-0.3-0.2-0.4v-3.6
			c0-0.2,0.1-0.3,0.2-0.5c0.1-0.1,0.3-0.2,0.5-0.2h3.6c0.2,0,0.3,0.1,0.5,0.2C130.9,76.4,131,76.5,131,76.7z M131,83.9v3.6
			c0,0.2-0.1,0.3-0.2,0.5c-0.1,0.1-0.3,0.2-0.5,0.2h-3.6c-0.2,0-0.3-0.1-0.5-0.2c-0.2-0.1-0.2-0.3-0.2-0.5v-3.6
			c0-0.2,0.1-0.3,0.2-0.5c0.2-0.1,0.3-0.1,0.5-0.1h3.6c0.2,0,0.4,0,0.5,0.2C130.9,83.6,131,83.7,131,83.9z M159.9,62.2v3.6
			c0,0.2-0.1,0.3-0.2,0.5c-0.1,0.1-0.2,0.1-0.4,0.1H134c-0.2,0-0.3,0-0.5-0.2c-0.1-0.1-0.1-0.2-0.1-0.4v-3.6c0-0.2,0.1-0.3,0.2-0.4
			c0.1-0.2,0.2-0.3,0.4-0.3h25.3c0.2,0,0.3,0.1,0.5,0.2C159.9,61.9,159.9,62.1,159.9,62.2z M159.9,69.4V73c0,0.2-0.1,0.3-0.2,0.4
			c-0.1,0.1-0.3,0.2-0.5,0.2H134c-0.2,0-0.3-0.1-0.4-0.2c-0.1-0.1-0.2-0.3-0.2-0.4v-3.6c0-0.2,0.1-0.3,0.2-0.4s0.3-0.2,0.4-0.2h25.3
			c0.2,0,0.3,0.1,0.5,0.2C159.9,69.1,159.9,69.3,159.9,69.4z M159.9,76.7v3.6c0,0.2-0.1,0.3-0.2,0.4c-0.1,0.1-0.3,0.2-0.5,0.2H134
			c-0.2,0-0.3-0.1-0.4-0.2c-0.1-0.1-0.2-0.3-0.2-0.4v-3.6c0-0.2,0.1-0.3,0.2-0.5c0.1-0.1,0.3-0.2,0.4-0.2h25.3
			c0.2,0,0.3,0.1,0.5,0.2C159.9,76.4,159.9,76.5,159.9,76.7z M159.9,83.9v3.6c0,0.2-0.1,0.3-0.2,0.5c-0.1,0.1-0.3,0.2-0.5,0.2H134
			c-0.2,0-0.3-0.1-0.4-0.2s-0.2-0.3-0.2-0.5v-3.6c0-0.2,0.1-0.3,0.2-0.5c0.1-0.1,0.2-0.1,0.4-0.1h25.3c0.2,0,0.3,0.1,0.5,0.2
			C159.9,83.6,159.9,83.7,159.9,83.9z"/>
	</g>
	<circle fill="#C95149" cx="154.7" cy="61.2" r="7.2"/>
	<path fill="#FFFFFF" d="M158.1,63.7c0.2-0.2,0.2-0.6,0-0.8l-1.7-1.7l1.7-1.6c0.2-0.2,0.2-0.6,0-0.8l-0.8-0.8
		c-0.2-0.2-0.6-0.2-0.8,0l-1.7,1.7l-1.7-1.7c-0.2-0.2-0.6-0.2-0.8,0l-0.8,0.8c-0.2,0.2-0.2,0.6,0,0.8l1.7,1.7l-1.7,1.7
		c-0.2,0.2-0.2,0.6,0,0.8l0.8,0.8c0.2,0.2,0.6,0.2,0.8,0l1.7-1.7l1.7,1.7c0.2,0.2,0.6,0.2,0.8,0L158.1,63.7z"/>
</g>
</svg>
