<?xml version="1.0" encoding="utf-8"?>
<!-- Generator: Adobe Illustrator 19.1.0, SVG Export Plug-In . SVG Version: 6.00 Build 0)  -->
<svg version="1.1" id="Layer_1" xmlns="http://www.w3.org/2000/svg" xmlns:xlink="http://www.w3.org/1999/xlink" x="0px" y="0px"
	 viewBox="0 0 20 20" style="enable-background:new 0 0 20 20;" xml:space="preserve">
<style type="text/css">
	.st0{fill:#FFFFFF;}
	.st1{fill:#2F66B0;}
	.st2{fill:#EFB61C;}
	.st3{fill:#EA1D25;}
	.st4{fill:#0F8241;}
</style>
<g>
	<g>
		<g>
			<path class="st0" d="M2.1,0.2L2.1,0.2H1.8l0,0c-0.9,0-1.6,0.7-1.6,1.6l0,0l0,0v0.5l0,0l0,15.9v0c0,0.9,0.7,1.6,1.6,1.6l0,0h16.5
				l0,0c0.9,0,1.6-0.7,1.6-1.6v0l0-16.4v0c0-0.9-0.7-1.6-1.6-1.6l0,0L2.1,0.2z"/>
		</g>
		<g>
			<g>
				<path class="st1" d="M6.3,12.3C6.3,12.4,6.3,12.4,6.3,12.3c0,0-3.9,0.1-6,1.5c-0.1,0.1-0.1,0-0.1,0V6.7c0,0,1.4,3,5.4,2.4
					c0,0,0,0,0,0S4.7,10.8,6.3,12.3z"/>
			</g>
			<g>
				<path class="st2" d="M2.9,13.9c-1.3,0.5-2.1,1.6-2.1,2.9c0,1.3,0.8,2.4,2,2.9c0,0,0.1,0,0.1,0c0,0,6.3,0,6.3,0s0,0,0.1-0.1
					c3-2.7,0.7-4.7-1.9-6.5c0,0-0.1,0-0.1,0l0,0c-0.5-0.1-1.3,0-2.2,0.1C4.2,13.5,3.4,13.7,2.9,13.9L2.9,13.9z"/>
			</g>
			<g>
				<path class="st3" d="M19.8,1.7c0-0.9-0.7-1.6-1.6-1.6l0,0H9.8l0,0c1.2,1,1.9,2.3,1.9,3.8c0,1.1-0.4,2-0.9,2.7l0,0
					c0.6-0.4,2.8-1.2,4.9-0.9c1.9,0.3,3.3,1.1,4.1,2l0.1,0.1V1.7L19.8,1.7z"/>
			</g>
			<g>
				<path class="st4" d="M19.8,18.2V7.9l0,0l-0.1-0.1c-0.8-0.8-2.3-1.7-4.1-2c-2.1-0.3-4.3,0.4-4.9,0.9l0,0l-0.1,0.1
					c0,0-0.3,0.4-0.7,0.7C9.5,7.9,9,8.3,9,8.3C8.5,8.7,8.2,9.2,8.2,9.7c0,0.5,0.3,1,0.8,1.4c0,0,0.8,0.6,1.3,1
					c0.5,0.4,1.2,1.1,1.2,1.1c0.7,0.7,1.2,1.7,1.2,2.9c0,1-0.3,2-0.9,2.6l-0.8,1.1h7.3l0,0C19.1,19.8,19.8,19.1,19.8,18.2L19.8,18.2
					z"/>
			</g>
			<g>
				<path class="st1" d="M3.8,0.2C2.3,1,2,3,2.5,4.8C3.2,7.2,5,8.9,6.8,8.4c2.5-0.8,2.5-2.8,1.8-5.2c-0.3-1.3-1.3-2.4-2.1-3l0,0
					L3.8,0.2L3.8,0.2z"/>
			</g>
			<g>
				<path class="st1" d="M0.2,1.8v0.5l0,0c0.5-0.9,1.1-1.7,1.9-2.1h0H1.8l0,0C0.9,0.2,0.2,0.9,0.2,1.8L0.2,1.8L0.2,1.8z"/>
			</g>
		</g>
	</g>
</g>
</svg>
