<?xml version="1.0" encoding="utf-8"?>
<!-- Generator: Adobe Illustrator 17.1.0, SVG Export Plug-In . SVG Version: 6.00 Build 0)  -->
<!DOCTYPE svg PUBLIC "-//W3C//DTD SVG 1.1//EN" "http://www.w3.org/Graphics/SVG/1.1/DTD/svg11.dtd">
<svg version="1.1" id="Layer_1" xmlns="http://www.w3.org/2000/svg" xmlns:xlink="http://www.w3.org/1999/xlink" x="0px" y="0px"
	 viewBox="126 54 36 36" enable-background="new 126 54 36 36" xml:space="preserve">
<path fill="#FFFFFF" d="M162,58.2v27.7c0,0.8-0.3,1.4-0.8,1.9c-0.5,0.5-1.2,0.8-1.9,0.8h-30.5c-0.7,0-1.4-0.3-1.9-0.8
	c-0.6-0.5-0.9-1.1-0.9-1.9V58.2c0-0.7,0.3-1.4,0.8-1.9c0.5-0.5,1.2-0.8,2-0.8h30.5c0.7,0,1.4,0.3,1.9,0.8S162,57.5,162,58.2z
	 M128.8,85.9h30.5V63.8h-30.5V85.9z M159.2,58.9c0-0.6-0.5-1.1-1.1-1.1h-22.7c-0.6,0-1,0.5-1,1.1v1.7c0,0.6,0.5,1.1,1.1,1.1h22.7
	c0.6,0,1.1-0.5,1.1-1.1L159.2,58.9L159.2,58.9z M130.7,61.7c1.1,0,1.9-0.9,1.9-1.9c0-1-0.8-2-1.9-2s-1.9,0.8-1.9,1.9
	C128.8,60.8,129.7,61.7,130.7,61.7z"/>
</svg>
