<?xml version="1.0" encoding="utf-8"?>
<!-- Generator: Adobe Illustrator 19.1.0, SVG Export Plug-In . SVG Version: 6.00 Build 0)  -->
<svg version="1.1" id="Layer_1" xmlns="http://www.w3.org/2000/svg" xmlns:xlink="http://www.w3.org/1999/xlink" x="0px" y="0px"
	 viewBox="0 0 20 20" style="enable-background:new 0 0 20 20;" xml:space="preserve">
<style type="text/css">
	.st0{fill:#007BB5;}
	.st1{fill:#FFFFFF;}
</style>
<g>
	<g>
		<path class="st0" d="M18.4,0.2H1.6c-0.8,0-1.4,0.6-1.4,1.4v16.8c0,0.8,0.6,1.4,1.4,1.4h16.7c0.8,0,1.5-0.6,1.5-1.4V1.6
			C19.8,0.8,19.2,0.2,18.4,0.2z"/>
		<path class="st1" d="M3.1,7.5H6v9.4H3.1V7.5z M4.6,2.9c0.9,0,1.7,0.8,1.7,1.7c0,0.9-0.8,1.7-1.7,1.7c-0.9,0-1.7-0.8-1.7-1.7
			C2.9,3.6,3.6,2.9,4.6,2.9"/>
		<path class="st1" d="M7.8,7.5h2.8v1.3h0c0.4-0.7,1.3-1.5,2.8-1.5c2.9,0,3.5,1.9,3.5,4.5v5.1H14v-4.6c0-1.1,0-2.5-1.5-2.5
			c-1.5,0-1.7,1.2-1.7,2.4v4.6H7.8V7.5z"/>
	</g>
</g>
</svg>
