<?xml version="1.0" encoding="utf-8"?>
<!-- Generator: Adobe Illustrator 17.1.0, SVG Export Plug-In . SVG Version: 6.00 Build 0)  -->
<!DOCTYPE svg PUBLIC "-//W3C//DTD SVG 1.1//EN" "http://www.w3.org/Graphics/SVG/1.1/DTD/svg11.dtd">
<svg version="1.1" id="Layer_1" xmlns="http://www.w3.org/2000/svg" xmlns:xlink="http://www.w3.org/1999/xlink" x="0px" y="0px"
	 viewBox="42 42 36 36" enable-background="new 42 42 36 36" xml:space="preserve">
<path fill="#FFFFFF" d="M75.4,58.6c3.9-3.8,3.4-10.3,0-13.8c-3.2-3.4-10-3.8-13.9,0l-5.6,5.6c-3.8,3.8-3.8,10,0,13.8
	c0.9,0.9,2.3,0.9,3.2,0c0.9-0.9,0.9-2.3,0-3.2c-2.1-2.1-2.1-5.4,0-7.5l5.7-5.6c2.1-2,5.4-2,7.5,0c2.1,2,2.1,5.4,0,7.4l-2.7,2.7
	c0.7,1.8,0.9,3.7,0.8,5.6L75.4,58.6z M64.4,69.5c3.8-3.8,3.8-10,0-13.8c-0.9-0.9-2.4-0.9-3.2,0c-0.9,0.9-0.9,2.3,0,3.2
	c2.1,2,2.1,5.4,0,7.4l-5.6,5.6c-2.1,2-5.4,2-7.5,0c-2.1-2-2.1-5.4,0-7.4l2.7-2.7C50,60,49.8,58.1,50,56.1l-5.2,5.1
	c-3.8,3.8-3.8,10,0,13.8c3.9,3.8,10.1,3.8,13.9,0C58.7,75.1,64.4,69.5,64.4,69.5z"/>
</svg>
