<?xml version="1.0" encoding="utf-8"?>
<!-- Generator: Adobe Illustrator 17.1.0, SVG Export Plug-In . SVG Version: 6.00 Build 0)  -->
<!DOCTYPE svg PUBLIC "-//W3C//DTD SVG 1.1//EN" "http://www.w3.org/Graphics/SVG/1.1/DTD/svg11.dtd">
<svg version="1.1" id="preview" xmlns="http://www.w3.org/2000/svg" xmlns:xlink="http://www.w3.org/1999/xlink" x="0px" y="0px"
	 viewBox="0 0 36 36" enable-background="new 0 0 36 36" xml:space="preserve">
<g>
	<path fill="#FFFFFF" d="M35.8,18.4c0,0-7.7,11.6-17.9,11.6S0.1,18.4,0.1,18.4c-0.2-0.2-0.2-0.6,0-0.8C0.1,17.6,7.8,6,18,6
		s17.8,11.5,17.8,11.5l0.1,0.1C36,17.8,36,18.2,35.8,18.4z M24.7,18c0-3.7-3-6.8-6.8-6.8c-3.8,0-6.8,3-6.8,6.8c0,3.8,3,6.8,6.8,6.8
		C21.7,24.8,24.7,21.7,24.7,18z"/>
</g>
</svg>
