<?xml version="1.0" encoding="utf-8"?>
<!-- Generator: Adobe Illustrator 17.1.0, SVG Export Plug-In . SVG Version: 6.00 Build 0)  -->
<!DOCTYPE svg PUBLIC "-//W3C//DTD SVG 1.1//EN" "http://www.w3.org/Graphics/SVG/1.1/DTD/svg11.dtd">
<svg version="1.1" id="Layer_1" xmlns="http://www.w3.org/2000/svg" xmlns:xlink="http://www.w3.org/1999/xlink" x="0px" y="0px"
	 viewBox="42 42 36 36" enable-background="new 42 42 36 36" xml:space="preserve">
<path fill="#FFFFFF" d="M75.4,64.9C74.9,58.5,69.9,52.9,65,50c1.3-2.4,2-2.8,3.3-4.7c0.2-0.3,0.3-0.7,0.2-1.1
	c-0.1-0.4-0.4-0.7-0.7-0.8c-2.5-0.8-5.1-1.3-7.7-1.3c-2.6,0-5.2,0.4-7.7,1.3c-0.3,0.1-0.6,0.4-0.7,0.8c-0.1,0.4-0.1,0.8,0.2,1.1
	c1.2,1.9,1.8,2.4,3.1,4.7c-5,3-9.8,8.6-10.2,14.9c-0.6,8.1,7.1,13.1,15.4,13.1S75.9,72.9,75.4,64.9z M61.3,70.6v1.6
	c0,0.5-0.5,0.8-1.1,0.8h-0.9c-0.6,0-1.1-0.3-1.1-0.8v-1.5c-1.4-0.2-2.8-0.4-3.8-0.8c-0.6-0.2-0.8-0.7-0.5-1.1l0.5-0.9
	c0.2-0.4,0.9-0.6,1.5-0.4c1.1,0.4,2.3,0.6,3.5,0.6c1.9,0,2.5-0.5,2.5-1.4c0-1-0.6-1.2-2.4-1.6c-3-0.6-5.3-1.4-5.3-4.1
	c0-2.3,1.8-3.5,4.5-3.8v-1.9c0-0.4,0.5-0.8,1.2-0.8h0.9c0.6,0,1.2,0.4,1.2,0.8v1.9c1,0.1,1.9,0.2,2.6,0.5c0.6,0.2,0.8,0.7,0.5,1.1
	l-0.5,0.8c-0.3,0.4-1,0.6-1.6,0.4c-0.7-0.2-1.5-0.3-2.5-0.3c-1.4,0-2,0.5-2,1.2c0,0.9,0.3,1,2.2,1.4c3,0.6,5.7,1.3,5.7,4.3
	C66.2,68.7,64.7,70.2,61.3,70.6L61.3,70.6z"/>
</svg>
