<?xml version="1.0" encoding="utf-8"?>
<!-- Generator: Adobe Illustrator 17.1.0, SVG Export Plug-In . SVG Version: 6.00 Build 0)  -->
<!DOCTYPE svg PUBLIC "-//W3C//DTD SVG 1.1//EN" "http://www.w3.org/Graphics/SVG/1.1/DTD/svg11.dtd">
<svg version="1.1" id="search" xmlns="http://www.w3.org/2000/svg" xmlns:xlink="http://www.w3.org/1999/xlink" x="0px" y="0px"
	 viewBox="0 0 36 36" enable-background="new 0 0 36 36" xml:space="preserve">
<path fill="#FFFFFF" d="M35.1,30.9c0,0-5.2-5.2-10.2-10.2c1.3-2.1,2.1-4.5,2.1-7.2C27,6,20.9,0,13.5,0C6,0,0,6,0,13.5
	C0,20.9,6,27,13.5,27c2.6,0,5.1-0.8,7.2-2.1c5.1,5.1,10.2,10.2,10.2,10.2c1.2,1.2,3.1,1.2,4.2,0C36.3,34,36.3,32.1,35.1,30.9z
	 M13.5,22C8.8,22,5,18.2,5,13.5S8.8,5,13.5,5c4.7,0,8.5,3.8,8.5,8.5S18.2,22,13.5,22z"/>
</svg>
