<?xml version="1.0" encoding="utf-8"?>
<!-- Generator: Adobe Illustrator 19.1.0, SVG Export Plug-In . SVG Version: 6.00 Build 0)  -->
<svg version="1.1" id="Layer_1" xmlns="http://www.w3.org/2000/svg" xmlns:xlink="http://www.w3.org/1999/xlink" x="0px" y="0px"
	 viewBox="0 0 20 20" style="enable-background:new 0 0 20 20;" xml:space="preserve">
<style type="text/css">
	.st0{fill:#00A1DF;}
</style>
<g>
	<g>
		<path class="st0" d="M8.3,4.8C9,4.1,9.9,3.7,10.8,3.7c1.3,0,2.4,0.7,3,1.8c0.5-0.2,1.1-0.4,1.7-0.4c2.3,0,4.2,1.9,4.2,4.3
			s-1.9,4.3-4.2,4.3c-0.3,0-0.6,0-0.8-0.1c-0.5,0.9-1.5,1.6-2.7,1.6c-0.5,0-0.9-0.1-1.4-0.3C10.1,16.1,8.9,17,7.4,17
			c-1.5,0-2.8-1-3.3-2.3c-0.2,0-0.4,0.1-0.7,0.1c-1.8,0-3.3-1.5-3.3-3.3c0-1.2,0.7-2.3,1.6-2.9c-0.2-0.5-0.3-1-0.3-1.5
			c0-2.1,1.7-3.8,3.8-3.8C6.6,3.3,7.6,3.9,8.3,4.8z"/>
	</g>
</g>
</svg>
