<?xml version="1.0" encoding="utf-8"?>
<!-- Generator: Adobe Illustrator 17.1.0, SVG Export Plug-In . SVG Version: 6.00 Build 0)  -->
<!DOCTYPE svg PUBLIC "-//W3C//DTD SVG 1.1//EN" "http://www.w3.org/Graphics/SVG/1.1/DTD/svg11.dtd">
<svg version="1.1" id="email" xmlns="http://www.w3.org/2000/svg" xmlns:xlink="http://www.w3.org/1999/xlink" x="0px" y="0px"
	 viewBox="126 54 36 36" enable-background="new 126 54 36 36" xml:space="preserve">
<g>
	<path fill="#FFFFFF" d="M152.3,63c1.3,1.6,1.9,3.3,1.9,5.2c0,1.9-0.6,3.6-1.9,5.2c-1.3,1.6-3,2.8-5.2,3.7c-2.2,0.9-4.5,1.4-7.1,1.4
		c-1.2,0-2.3-0.1-3.5-0.3c-1.7,1.2-3.5,2-5.6,2.6c-0.5,0.1-1.1,0.2-1.7,0.3l0,0c-0.1,0-0.3-0.1-0.4-0.2c-0.1-0.1-0.2-0.2-0.2-0.4
		v-0.1v-0.1v-0.1v-0.1c0,0,0-0.1,0.1-0.1c0.1,0,0.1-0.1,0.1-0.1s0-0.1,0.1-0.1l0.1-0.1c0.1-0.1,0.2-0.2,0.5-0.5
		c0.2-0.3,0.4-0.5,0.5-0.6c0.1-0.1,0.3-0.3,0.5-0.6c0.2-0.2,0.4-0.5,0.5-0.8c0.1-0.3,0.3-0.6,0.4-0.9c-1.7-1-3-2.2-3.9-3.6
		c-1-1.4-1.4-2.9-1.4-4.5c0-1.9,0.6-3.6,1.9-5.2c1.3-1.6,3-2.8,5.2-3.7c2.2-0.9,4.5-1.4,7.1-1.4c2.6,0,4.9,0.5,7.1,1.4
		C149.3,60.2,151.1,61.4,152.3,63z M162,73.3c0,1.6-0.5,3.1-1.4,4.5c-1,1.4-2.3,2.6-3.9,3.5c0.1,0.3,0.3,0.6,0.4,0.9
		c0.1,0.3,0.3,0.5,0.5,0.8c0.2,0.3,0.3,0.4,0.5,0.6c0.1,0.1,0.3,0.3,0.5,0.6c0.2,0.3,0.4,0.4,0.5,0.5c0,0,0,0,0.1,0.1l0.1,0.1
		c0,0,0,0.1,0.1,0.1c0.1,0,0.1,0.1,0.1,0.1v0.1v0.1v0.1v0.1c0,0.2-0.1,0.3-0.3,0.4c-0.1,0.1-0.3,0.2-0.4,0.1
		c-0.7-0.1-1.2-0.2-1.7-0.3c-2.1-0.5-3.9-1.4-5.6-2.6c-1.2,0.2-2.4,0.3-3.5,0.3c-3.6,0-6.8-0.9-9.5-2.7c0.8,0.1,1.4,0.1,1.8,0.1
		c2.2,0,4.2-0.3,6.2-0.9s3.8-1.5,5.3-2.6c1.7-1.2,3-2.7,3.9-4.3s1.3-3.3,1.3-5.1c0-1-0.2-2-0.5-3.1c1.7,1,3.1,2.1,4.1,3.6
		C161.6,69.9,162,71.6,162,73.3z"/>
</g>
</svg>
