<?xml version="1.0" encoding="utf-8"?>
<!-- Generator: Adobe Illustrator 17.1.0, SVG Export Plug-In . SVG Version: 6.00 Build 0)  -->
<!DOCTYPE svg PUBLIC "-//W3C//DTD SVG 1.1//EN" "http://www.w3.org/Graphics/SVG/1.1/DTD/svg11.dtd">
<svg version="1.1" id="Layer_1" xmlns="http://www.w3.org/2000/svg" xmlns:xlink="http://www.w3.org/1999/xlink" x="0px" y="0px"
	 viewBox="126 54 36 36" enable-background="new 126 54 36 36" xml:space="preserve">
<g>
	<path fill="#FFFFFF" d="M159.5,62.9c1.6,2.7,2.4,5.7,2.4,9c0,3.3-0.8,6.3-2.4,9s-3.8,4.9-6.5,6.5c-2.7,1.6-5.7,2.4-9,2.4
		c-3.3,0-6.3-0.8-9-2.4s-4.9-3.8-6.5-6.5c-1.6-2.7-2.4-5.7-2.4-9s0.8-6.3,2.4-9c1.6-2.8,3.8-5,6.5-6.6c2.8-1.6,5.8-2.4,9-2.4
		c3.3,0,6.3,0.8,9,2.4C155.8,57.9,157.9,60.1,159.5,62.9z M155,78.3c1.1-1.9,1.7-4.1,1.7-6.4c0-2.3-0.6-4.4-1.7-6.4
		c-1.1-1.9-2.7-3.5-4.6-4.6s-4.1-1.7-6.4-1.7c-2.3,0-4.4,0.6-6.4,1.7c-1.9,1.2-3.4,2.7-4.6,4.7c-1.2,2-1.7,4.1-1.7,6.4
		c0,2.3,0.6,4.4,1.7,6.4c1.1,2,2.7,3.5,4.6,4.6c1.9,1.1,4.1,1.7,6.4,1.7c2.3,0,4.4-0.6,6.4-1.7C152.3,81.8,153.9,80.3,155,78.3z
		 M153.7,72c0,0.6-0.3,1-0.7,1.3l-12.7,7.5c-0.2,0.1-0.5,0.2-0.7,0.2c-0.2,0-0.5-0.1-0.7-0.2c-0.6-0.4-0.9-0.8-0.9-1.4v-15
		c0-0.6,0.2-1,0.7-1.3s1-0.3,1.5,0l12.8,7.5C153.5,71,153.7,71.4,153.7,72z"/>
</g>
</svg>
