<?xml version="1.0" encoding="utf-8"?>
<!-- Generator: Adobe Illustrator 17.1.0, SVG Export Plug-In . SVG Version: 6.00 Build 0)  -->
<!DOCTYPE svg PUBLIC "-//W3C//DTD SVG 1.1//EN" "http://www.w3.org/Graphics/SVG/1.1/DTD/svg11.dtd">
<svg version="1.1" id="Layer_1" xmlns="http://www.w3.org/2000/svg" xmlns:xlink="http://www.w3.org/1999/xlink" x="0px" y="0px"
	 viewBox="126 54 36 36" enable-background="new 126 54 36 36" xml:space="preserve">
<g>
	<path fill="#FFFFFF" d="M159.5,63c1.6,2.7,2.4,5.7,2.4,9c0,3.3-0.8,6.3-2.4,9c-1.6,2.7-3.8,4.9-6.5,6.5c-2.7,1.6-5.7,2.4-9,2.4
		s-6.3-0.8-9-2.4c-2.7-1.6-4.9-3.8-6.5-6.5c-1.6-2.7-2.4-5.7-2.4-9s0.8-6.3,2.4-9c1.6-2.7,3.7-4.9,6.5-6.5c2.8-1.6,5.7-2.4,9-2.4
		s6.3,0.8,9,2.4C155.7,58.1,157.9,60.2,159.5,63z M155,78.5c1.1-1.9,1.7-4.1,1.7-6.4s-0.6-4.4-1.7-6.4c-1.1-1.9-2.7-3.5-4.6-4.6
		c-1.9-1.1-4.1-1.7-6.4-1.7c-2.3,0-4.4,0.6-6.4,1.7c-1.9,1.1-3.5,2.7-4.6,4.6c-1.1,1.9-1.7,4.1-1.7,6.4s0.6,4.4,1.7,6.4
		c1.1,1.9,2.7,3.5,4.6,4.6c1.9,1.1,4.1,1.7,6.4,1.7c2.3,0,4.4-0.6,6.4-1.7C152.3,82,153.9,80.4,155,78.5z M147,63.9v10.5
		c0,0.2-0.1,0.4-0.2,0.5c-0.1,0.1-0.3,0.2-0.5,0.2h-7.5c-0.2,0-0.4-0.1-0.5-0.2c-0.1-0.1-0.2-0.3-0.2-0.5v-1.5
		c0-0.2,0.1-0.4,0.2-0.5c0.1-0.1,0.3-0.2,0.5-0.2h5.2v-8.3c0-0.2,0.1-0.4,0.2-0.5s0.3-0.3,0.5-0.3h1.5c0.2,0,0.4,0.1,0.5,0.2
		S147,63.7,147,63.9z"/>
</g>
</svg>
