<?xml version="1.0" encoding="utf-8"?>
<!-- Generator: Adobe Illustrator 17.1.0, SVG Export Plug-In . SVG Version: 6.00 Build 0)  -->
<!DOCTYPE svg PUBLIC "-//W3C//DTD SVG 1.1//EN" "http://www.w3.org/Graphics/SVG/1.1/DTD/svg11.dtd">
<svg version="1.1" id="Layer_1" xmlns="http://www.w3.org/2000/svg" xmlns:xlink="http://www.w3.org/1999/xlink" x="0px" y="0px"
	 viewBox="126 54 36 36" enable-background="new 126 54 36 36" xml:space="preserve">
<g>
	<path fill="#FFFFFF" d="M162,59.4v20.4c0,0.8-0.3,1.5-0.9,2.1s-1.3,0.9-2.1,0.9h-10.1c0,0.5,0.1,0.9,0.3,1.4
		c0.2,0.5,0.4,0.9,0.6,1.3s0.3,0.7,0.3,0.8c0,0.3-0.1,0.6-0.4,0.8c-0.2,0.2-0.5,0.4-0.8,0.4h-9.6c-0.3,0-0.6-0.1-0.8-0.4
		c-0.2-0.2-0.4-0.5-0.4-0.8c0-0.2,0.1-0.4,0.3-0.8c0.2-0.4,0.4-0.8,0.6-1.3c0.2-0.5,0.3-1,0.3-1.5H129c-0.8,0-1.5-0.3-2.1-0.9
		s-0.9-1.3-0.9-2.1V59.4c0-0.8,0.3-1.5,0.9-2.1s1.3-0.9,2.1-0.9h30c0.8,0,1.5,0.3,2.1,0.9C161.7,57.8,162,58.5,162,59.4z M159.5,75
		V59.4c0-0.2-0.1-0.3-0.2-0.4s-0.3-0.2-0.4-0.2H129c-0.2,0-0.3,0-0.5,0.1c-0.1,0.2-0.1,0.3-0.1,0.5V75c0,0.2,0.1,0.3,0.2,0.4
		c0.1,0.1,0.3,0.2,0.4,0.2h30c0.2,0,0.3-0.1,0.4-0.2S159.5,75.1,159.5,75z"/>
	<g>
		<path fill="#FFFFFF" d="M141.4,62.8c0.8-0.5,1.6-0.7,2.6-0.7c0.9,0,1.8,0.2,2.6,0.7c0.8,0.5,1.4,1.1,1.9,1.9
			c0.5,0.8,0.7,1.6,0.7,2.6s-0.2,1.8-0.7,2.6c-0.5,0.8-1.1,1.4-1.9,1.9c-0.8,0.5-1.6,0.7-2.6,0.7c-0.9,0-1.8-0.2-2.6-0.7
			c-0.8-0.5-1.4-1.1-1.9-1.9s-0.7-1.6-0.7-2.6s0.2-1.8,0.7-2.6S140.6,63.2,141.4,62.8z M146.6,67.6c0.1-0.1,0.2-0.2,0.2-0.4
			c0-0.2-0.1-0.3-0.2-0.4l-3.6-2.1c-0.1-0.1-0.3-0.1-0.4,0c-0.1,0.1-0.2,0.2-0.2,0.4v4.3c0,0.2,0.1,0.3,0.2,0.4
			c0.1,0,0.1,0.1,0.2,0.1s0.1,0,0.2-0.1L146.6,67.6z"/>
	</g>
</g>
</svg>
