<?xml version="1.0" encoding="utf-8"?>
<!-- Generator: Adobe Illustrator 17.1.0, SVG Export Plug-In . SVG Version: 6.00 Build 0)  -->
<!DOCTYPE svg PUBLIC "-//W3C//DTD SVG 1.1//EN" "http://www.w3.org/Graphics/SVG/1.1/DTD/svg11.dtd">
<svg version="1.1" id="Layer_1" xmlns="http://www.w3.org/2000/svg" xmlns:xlink="http://www.w3.org/1999/xlink" x="0px" y="0px"
	 viewBox="0 0 150 150" enable-background="new 0 0 150 150" xml:space="preserve">
<path fill="#FFFFFF" d="M73.7,6.7c-6.1,1.6-11.8,3.2-17.6,4.8c3.2,4.6,5.9,5.6,10.8,4.2c3.6-0.9,3.8-0.8,6.7,5.2
	C73.7,16,73.7,11.9,73.7,6.7z"/>
<rect x="73.1" y="5.3" fill="#FFFFFF" width="1.7" height="31.2"/>
<polygon fill="#FFFFFF" points="138.1,135.5 138.1,54.6 145.1,54.6 145.1,49 138.1,49 11.7,49 4.7,49 4.7,54.6 11.7,54.6 
	11.7,135.5 -0.1,135.5 -0.1,145.8 149.8,145.8 149.8,135.5 "/>
<rect x="28.1" y="63.1" fill="#37BECD" width="21.3" height="24.3"/>
<rect x="11.7" y="34.5" fill="#FFFFFF" width="126.3" height="9.6"/>
<rect x="63.2" y="63.1" fill="#37BECD" width="21.3" height="24.3"/>
<rect x="100.6" y="63.1" fill="#37BECD" width="21.3" height="24.3"/>
<rect x="28.1" y="100.6" fill="#37BECD" width="21.3" height="31.9"/>
<rect x="63.2" y="100.6" fill="#37BECD" width="21.3" height="31.9"/>
<rect x="100.6" y="100.6" fill="#37BECD" width="21.3" height="31.9"/>
</svg>
