<?xml version="1.0" encoding="utf-8"?>
<!-- Generator: Adobe Illustrator 17.1.0, SVG Export Plug-In . SVG Version: 6.00 Build 0)  -->
<!DOCTYPE svg PUBLIC "-//W3C//DTD SVG 1.1//EN" "http://www.w3.org/Graphics/SVG/1.1/DTD/svg11.dtd">
<svg version="1.1" id="Layer_1" xmlns="http://www.w3.org/2000/svg" xmlns:xlink="http://www.w3.org/1999/xlink" x="0px" y="0px"
	 viewBox="69 -3 150 150" enable-background="new 69 -3 150 150" xml:space="preserve">
<g id="Layer_2" display="none">
	<rect x="-690" y="-34" display="inline" width="320" height="320"/>
	<rect x="910" y="-34" display="inline" width="320" height="320"/>
</g>
<g>
	<g>
		<path fill="#FFFFFF" d="M156.9,108.3c-3.4,2.8-7.7,4.5-12.4,4.5c-4.6,0-8.9-1.7-12.3-4.4l-25.5-20.8l-32.7,38l0,10.7
			c0,7.7,2.7,10.1,10.3,10.1h119.9c7.6,0,10.3-2.2,10.3-9.9v-10.9l-32.7-38.1L156.9,108.3z M73.8,61.3l0.2,51.8l26.5-30.6L73.8,61.3
			z M214.5,60.6L188,82.5l26.6,32.8V60.6z M144.5,104.1c3.6,0,7-1.4,9.4-3.7c9.2-7.7,61-49.8,60.6-49.7c0.4,0-51.4-42.1-60.7-49.8
			c-2.5-2.2-5.8-3.7-9.4-3.7c-3.4,0-6.6,1.3-9,3.3C127.2,7.3,74,50.6,74,50.6s53.3,43.3,61.5,50.1
			C137.9,102.8,141.1,104.1,144.5,104.1z"/>
	</g>
</g>
</svg>
