<?xml version="1.0" encoding="utf-8"?>
<!-- Generator: Adobe Illustrator 17.1.0, SVG Export Plug-In . SVG Version: 6.00 Build 0)  -->
<!DOCTYPE svg PUBLIC "-//W3C//DTD SVG 1.1//EN" "http://www.w3.org/Graphics/SVG/1.1/DTD/svg11.dtd">
<svg version="1.1" id="email" xmlns="http://www.w3.org/2000/svg" xmlns:xlink="http://www.w3.org/1999/xlink" x="0px" y="0px"
	 viewBox="-42 -42 120 120" enable-background="new -42 -42 120 120" xml:space="preserve">
<g>
	<path fill="#FFFFFF" d="M36.1,26l16.6,19.2v5.5c0,3.9-1.4,5-5.2,5h-60.9c-3.9,0-5.2-1.2-5.2-5.1l0-5.4L-2.1,26l12.9,10.5
		c1.7,1.4,3.9,2.2,6.2,2.2c2.4,0,4.6-0.9,6.3-2.3L36.1,26z"/>
	<path fill="#FFFFFF" d="M35.9,21.4"/>
	<path fill="#FFFFFF" d="M21.8,32.5c-1.3,1.1-3,1.9-4.8,1.9c-1.7,0-3.3-0.7-4.6-1.7C8.3,29.2-18.8,7.4-18.8,7.4l0-5.3
		c0-4,1.4-5.4,5.4-5.4h60.7c4,0,5.4,1.4,5.4,5.4v5.4C52.9,7.4,26.5,28.6,21.8,32.5z"/>
	<polygon fill="#FFFFFF" points="-18.8,12.7 -5.3,23.4 -18.7,38.8 	"/>
	<polygon fill="#FFFFFF" points="52.6,12.4 52.6,39.9 39.2,23.4 	"/>
</g>
<g>
	<path fill="#DB9D0C" d="M55.7,4.4c0.3,0.6,0.3,1.3,0,1.9c-0.3,0.6-1,0.9-1.7,0.9H30.9c-0.7,0-1.3-0.4-1.7-0.9
		c-0.3-0.6-0.4-1.3,0-1.9l11.6-21.2c0.3-0.6,1-1,1.7-1c0.7,0,1.4,0.4,1.7,1L55.7,4.4z"/>
	<path fill="#FFFFFF" d="M44.6-9.7c0-0.1,0-0.2-0.2-0.3c-0.1-0.1-0.2-0.2-0.4-0.2h-3.3c-0.1,0-0.3,0.1-0.4,0.2
		c-0.1,0.1-0.2,0.2-0.2,0.3l0.3,6.9c0,0.2,0.2,0.3,0.5,0.3h2.8c0.3,0,0.5-0.2,0.5-0.3L44.6-9.7z"/>
	<path fill="#FFFFFF" d="M44.4,0c0-0.3-0.2-0.5-0.5-0.5H41c-0.3,0-0.5,0.2-0.5,0.5v2.9c0,0.3,0.2,0.5,0.5,0.5h2.9
		c0.3,0,0.5-0.2,0.5-0.5V0z"/>
</g>
</svg>
