<?xml version="1.0" encoding="utf-8"?>
<!-- Generator: Adobe Illustrator 17.1.0, SVG Export Plug-In . SVG Version: 6.00 Build 0)  -->
<!DOCTYPE svg PUBLIC "-//W3C//DTD SVG 1.1//EN" "http://www.w3.org/Graphics/SVG/1.1/DTD/svg11.dtd">
<svg version="1.1" id="email" xmlns="http://www.w3.org/2000/svg" xmlns:xlink="http://www.w3.org/1999/xlink" x="0px" y="0px"
	 viewBox="-42 -42 120 120" enable-background="new -42 -42 120 120" xml:space="preserve">
<g>
	<g>
		<path fill="#FFFFFF" d="M37.1,26l16.6,19.2v5.5c0,3.9-1.4,5-5.2,5h-60.9c-3.9,0-5.2-1.2-5.2-5.1l0-5.4L-1.1,26l12.9,10.5
			c1.7,1.4,3.9,2.2,6.2,2.2c2.4,0,4.6-0.9,6.3-2.3L37.1,26z"/>
		<path fill="#FFFFFF" d="M36.9,21.4"/>
		<path fill="#FFFFFF" d="M22.8,32.5c-1.3,1.1-3,1.9-4.8,1.9c-1.7,0-3.3-0.7-4.6-1.7C9.3,29.2-17.8,7.4-17.8,7.4l0-5.3
			c0-4,1.4-5.4,5.4-5.4h60.7c4,0,5.4,1.4,5.4,5.4v5.4C53.9,7.4,27.5,28.6,22.8,32.5z"/>
		<polygon fill="#FFFFFF" points="-17.8,12.7 -4.3,23.4 -17.7,38.8 		"/>
		<polygon fill="#FFFFFF" points="53.6,12.4 53.6,39.9 40.2,23.4 		"/>
	</g>
	<g>
		<path fill="#5485A3" d="M55.9-10.3c1.4,2.3,2,4.9,2,7.6s-0.7,5.3-2,7.6s-3.2,4.2-5.5,5.5c-2.3,1.4-4.9,2-7.6,2
			c-2.8,0-5.3-0.7-7.6-2C32.8,9.1,31,7.3,29.6,5s-2-4.9-2-7.6s0.7-5.3,2-7.6s3.2-4.2,5.5-5.5s4.9-2,7.6-2c2.8,0,5.3,0.7,7.6,2
			C52.7-14.4,54.6-12.6,55.9-10.3z"/>
		<path fill="#FFFFFF" d="M53-5.8c0-0.4-0.1-0.7-0.4-0.9l-1.8-1.8c-0.3-0.3-0.5-0.4-0.9-0.4c-0.3,0-0.6,0.1-0.9,0.4l-8.1,8L36.5-5
			c-0.3-0.2-0.5-0.4-0.9-0.4c-0.3,0-0.6,0.1-0.9,0.4l-1.8,1.8c-0.2,0.2-0.4,0.5-0.4,0.9c0,0.4,0.1,0.7,0.4,0.9l7.2,7.2
			C40.3,6,40.6,6.1,41,6.1c0.4,0,0.7-0.1,0.9-0.4L52.6-5C52.9-5.2,53-5.5,53-5.8z"/>
	</g>
</g>
</svg>
