<?xml version="1.0" encoding="utf-8"?>
<!-- Generator: Adobe Illustrator 17.1.0, SVG Export Plug-In . SVG Version: 6.00 Build 0)  -->
<!DOCTYPE svg PUBLIC "-//W3C//DTD SVG 1.1//EN" "http://www.w3.org/Graphics/SVG/1.1/DTD/svg11.dtd">
<svg version="1.1" id="email" xmlns="http://www.w3.org/2000/svg" xmlns:xlink="http://www.w3.org/1999/xlink" x="0px" y="0px"
	 viewBox="-42 -42 120 120" enable-background="new -42 -42 120 120" xml:space="preserve">
<g>
	<path fill="#FFFFFF" d="M37.1,26l16.6,19.2v5.5c0,3.9-1.4,5-5.2,5h-60.9c-3.9,0-5.2-1.2-5.2-5.1l0-5.4L-1.1,26l12.9,10.5
		c1.7,1.4,3.9,2.2,6.2,2.2c2.4,0,4.6-0.9,6.3-2.3L37.1,26z"/>
	<path fill="#FFFFFF" d="M36.9,21.4"/>
	<path fill="#FFFFFF" d="M22.8,32.5c-1.3,1.1-3,1.9-4.8,1.9c-1.7,0-3.3-0.7-4.6-1.7C9.3,29.2-17.8,7.4-17.8,7.4l0-5.3
		c0-4,1.4-5.4,5.4-5.4h60.7c4,0,5.4,1.4,5.4,5.4v5.4C53.9,7.4,27.5,28.6,22.8,32.5z"/>
	<polygon fill="#FFFFFF" points="-17.8,12.7 -4.3,23.4 -17.7,38.8 	"/>
	<polygon fill="#FFFFFF" points="53.6,12.4 53.6,39.9 40.2,23.4 	"/>
</g>
<path fill="#5485A3" d="M41.8,12.7c-8.4,0-15.3-6.8-15.3-15.3s6.8-15.3,15.3-15.3S57.1-11,57.1-2.5S50.3,12.7,41.8,12.7z"/>
<path fill="#FFFFFF" d="M51.8-3.4L50-5.2l-7.2-7.2c-0.2-0.2-0.6-0.4-0.9-0.4c-0.3,0-0.7,0.1-0.9,0.4l-1.8,1.8
	c-0.2,0.2-0.4,0.6-0.4,0.9c0,0.3,0.1,0.7,0.4,0.9l3.8,3.8h-10c-0.7,0-1.3,0.6-1.3,1.3v2.5c0,0.7,0.6,1.3,1.3,1.3h10l-3.8,3.8
	c-0.2,0.2-0.4,0.6-0.4,0.9s0.1,0.7,0.4,0.9L41,7.4c0.2,0.2,0.6,0.4,0.9,0.4c0.3,0,0.7-0.1,0.9-0.4L50,0.2l1.8-1.8
	c0.2-0.2,0.4-0.6,0.4-0.9S52-3.2,51.8-3.4z"/>
</svg>
