<?xml version="1.0" encoding="utf-8"?>
<!-- Generator: Adobe Illustrator 17.1.0, SVG Export Plug-In . SVG Version: 6.00 Build 0)  -->
<!DOCTYPE svg PUBLIC "-//W3C//DTD SVG 1.1//EN" "http://www.w3.org/Graphics/SVG/1.1/DTD/svg11.dtd">
<svg version="1.1" id="email" xmlns="http://www.w3.org/2000/svg" xmlns:xlink="http://www.w3.org/1999/xlink" x="0px" y="0px"
	 viewBox="-42 -42 120 120" enable-background="new -42 -42 120 120" xml:space="preserve">
<g>
	<path fill="#FFFFFF" d="M35.1,25l16.6,19.2v5.5c0,3.9-1.4,5-5.2,5h-60.9c-3.9,0-5.2-1.2-5.2-5.1l0-5.4L-3.1,25L9.8,35.5
		c1.7,1.4,3.9,2.2,6.2,2.2c2.4,0,4.6-0.9,6.3-2.3L35.1,25z"/>
	<path fill="#FFFFFF" d="M34.9,20.4"/>
	<path fill="#FFFFFF" d="M20.8,31.5c-1.3,1.1-3,1.9-4.8,1.9c-1.7,0-3.3-0.7-4.6-1.7C7.3,28.2-19.8,6.4-19.8,6.4l0-5.3
		c0-4,1.4-5.4,5.4-5.4h60.7c4,0,5.4,1.4,5.4,5.4v5.4C51.9,6.4,25.5,27.6,20.8,31.5z"/>
	<polygon fill="#FFFFFF" points="-19.8,11.7 -6.3,22.4 -19.7,37.8 	"/>
	<polygon fill="#FFFFFF" points="51.6,11.4 51.6,38.9 38.2,22.4 	"/>
</g>
<g>
	<circle fill="#5485A3" cx="40.8" cy="-3.7" r="15.2"/>
	<g>
		<path fill="#FFFFFF" d="M50.6-2.3c0,0.2-0.2,0.4-0.4,0.5l-2.4,0.4c-0.1,0.4-0.3,0.8-0.5,1.2c0.4,0.6,0.9,1.2,1.4,1.8
			c0.1,0.1,0.1,0.2,0.1,0.3c0,0.1,0,0.2-0.1,0.3c-0.3,0.4-2,2.3-2.5,2.3c-0.1,0-0.2-0.1-0.3-0.1l-1.8-1.4c-0.4,0.2-0.8,0.4-1.2,0.5
			C43,4.2,42.9,5,42.7,5.8c-0.1,0.2-0.2,0.4-0.5,0.4h-2.8c-0.2,0-0.4-0.2-0.5-0.4l-0.4-2.4c-0.4-0.1-0.8-0.3-1.1-0.5l-1.8,1.4
			c-0.1,0.1-0.2,0.1-0.3,0.1c-0.1,0-0.2-0.1-0.3-0.1c-0.7-0.6-1.6-1.4-2.1-2.1c-0.1-0.1-0.1-0.2-0.1-0.3c0-0.1,0-0.2,0.1-0.3
			c0.4-0.6,0.9-1.1,1.3-1.7c-0.2-0.4-0.4-0.8-0.5-1.3l-2.3-0.3c-0.2,0-0.4-0.2-0.4-0.5v-2.8c0-0.2,0.2-0.4,0.3-0.5L33.7-6
			c0.1-0.4,0.3-0.8,0.5-1.2c-0.4-0.6-0.9-1.2-1.4-1.8c-0.1-0.1-0.1-0.2-0.1-0.3c0-0.1,0.1-0.2,0.1-0.3c0.3-0.4,2-2.3,2.5-2.3
			c0.1,0,0.2,0.1,0.3,0.1l1.8,1.4c0.4-0.2,0.8-0.4,1.2-0.5c0.1-0.8,0.2-1.6,0.4-2.4c0.1-0.2,0.2-0.4,0.5-0.4h2.8
			c0.2,0,0.4,0.2,0.5,0.4l0.4,2.4c0.4,0.1,0.8,0.3,1.1,0.5l1.8-1.4c0.1-0.1,0.2-0.1,0.3-0.1c0.1,0,0.2,0.1,0.3,0.1
			c0.7,0.6,1.6,1.4,2.1,2.2c0.1,0.1,0.1,0.2,0.1,0.3c0,0.1,0,0.2-0.1,0.3c-0.4,0.6-0.9,1.1-1.3,1.7c0.2,0.4,0.4,0.8,0.5,1.3l2.3,0.4
			c0.2,0,0.4,0.2,0.4,0.5V-2.3z M40.8-7c-1.8,0-3.3,1.5-3.3,3.3s1.5,3.3,3.3,3.3c1.8,0,3.3-1.5,3.3-3.3S42.6-7,40.8-7z"/>
	</g>
</g>
</svg>
