<?xml version="1.0" encoding="utf-8"?>
<!-- Generator: Adobe Illustrator 17.1.0, SVG Export Plug-In . SVG Version: 6.00 Build 0)  -->
<!DOCTYPE svg PUBLIC "-//W3C//DTD SVG 1.1//EN" "http://www.w3.org/Graphics/SVG/1.1/DTD/svg11.dtd">
<svg version="1.1" id="email" xmlns="http://www.w3.org/2000/svg" xmlns:xlink="http://www.w3.org/1999/xlink" x="0px" y="0px"
	 viewBox="-42 -42 120 120" enable-background="new -42 -42 120 120" xml:space="preserve">
<g>
	<path fill="#FFFFFF" d="M37.1,26l16.6,19.2v5.5c0,3.9-1.4,5-5.2,5h-60.9c-3.9,0-5.2-1.2-5.2-5.1l0-5.4L-1.1,26l12.9,10.5
		c1.7,1.4,3.9,2.2,6.2,2.2c2.4,0,4.6-0.9,6.3-2.3L37.1,26z"/>
	<path fill="#FFFFFF" d="M36.9,21.4"/>
	<path fill="#FFFFFF" d="M22.8,32.5c-1.3,1.1-3,1.9-4.8,1.9c-1.7,0-3.3-0.7-4.6-1.7C9.3,29.2-17.8,7.4-17.8,7.4l0-5.3
		c0-4,1.4-5.4,5.4-5.4h60.7c4,0,5.4,1.4,5.4,5.4v5.4C53.9,7.4,27.5,28.6,22.8,32.5z"/>
	<polygon fill="#FFFFFF" points="-17.8,12.7 -4.3,23.4 -17.7,38.8 	"/>
	<polygon fill="#FFFFFF" points="53.6,12.4 53.6,39.9 40.2,23.4 	"/>
</g>
<circle fill="#C95149" cx="42.8" cy="-2.6" r="15.2"/>
<path fill="#FFFFFF" d="M50,2.7c0.5-0.5,0.5-1.3,0-1.8l-3.6-3.6L50-6.2c0.5-0.5,0.5-1.3,0-1.8l-1.8-1.8c-0.5-0.5-1.3-0.5-1.8,0
	l-3.6,3.6l-3.6-3.6c-0.5-0.5-1.3-0.5-1.8,0L35.6-8c-0.5,0.5-0.5,1.3,0,1.8l3.6,3.6l-3.6,3.6c-0.5,0.5-0.5,1.3,0,1.8l1.8,1.8
	c0.5,0.5,1.3,0.5,1.8,0l3.6-3.6l3.6,3.6c0.5,0.5,1.3,0.5,1.8,0L50,2.7z"/>
</svg>
