<?xml version="1.0" encoding="utf-8"?>
<!-- Generator: Adobe Illustrator 17.1.0, SVG Export Plug-In . SVG Version: 6.00 Build 0)  -->
<!DOCTYPE svg PUBLIC "-//W3C//DTD SVG 1.1//EN" "http://www.w3.org/Graphics/SVG/1.1/DTD/svg11.dtd">
<svg version="1.1" id="Layer_1" xmlns="http://www.w3.org/2000/svg" xmlns:xlink="http://www.w3.org/1999/xlink" x="0px" y="0px"
	 viewBox="0 0 36 36" enable-background="new 0 0 36 36" xml:space="preserve">
<g>
	<path fill="#FFFFFF" d="M35.9,6.8v22.3c0,1.8-0.7,3.4-2,4.7c-1.3,1.3-2.9,2-4.7,2H6.8c-1.8,0-3.4-0.7-4.7-2c-1.3-1.3-2-2.9-2-4.7
		V6.8c0-1.8,0.7-3.4,2-4.7c1.3-1.3,2.9-2,4.7-2h22.3c1.8,0,3.4,0.7,4.7,2C35.2,3.4,35.9,5,35.9,6.8z M30.5,18.5l0.5-5.1h-4.6v-2.5
		c0-0.8,0.1-1.3,0.4-1.6c0.2-0.3,0.8-0.5,1.7-0.5H31V3.8H27c-2.4,0-4,0.6-5.1,1.7c-1,1.1-1.5,2.8-1.5,5v3h-3v5.1h3v14.8h6.1V18.5
		H30.5z"/>
</g>
</svg>
