<?xml version="1.0" encoding="utf-8"?>
<!-- Generator: Adobe Illustrator 17.1.0, SVG Export Plug-In . SVG Version: 6.00 Build 0)  -->
<!DOCTYPE svg PUBLIC "-//W3C//DTD SVG 1.1//EN" "http://www.w3.org/Graphics/SVG/1.1/DTD/svg11.dtd">
<svg version="1.1" id="email" xmlns="http://www.w3.org/2000/svg" xmlns:xlink="http://www.w3.org/1999/xlink" x="0px" y="0px"
	 viewBox="-42 -42 120 120" enable-background="new -42 -42 120 120" xml:space="preserve">
<g>
	<path fill="#FFFFFF" d="M-7.6,0.7v7.6c0,0.4-0.2,0.6-0.4,1c-0.2,0.2-0.6,0.2-0.8,0.2h-7.8c-0.4,0-0.6,0-0.8-0.4
		c-0.2-0.4-0.4-0.4-0.4-0.8V0.7c0-0.4,0.2-0.6,0.4-0.8c0.2-0.4,0.4-0.6,0.8-0.6H-9c0.4,0,0.8,0.2,1,0.4C-7.8-0.1-7.6,0.3-7.6,0.7z
		 M-7.6,15.9v7.6c0,0.4-0.2,0.6-0.4,0.8c-0.2,0.2-0.6,0.4-1,0.4h-7.6c-0.4,0-0.6-0.2-1-0.4c-0.2-0.2-0.4-0.6-0.4-0.8v-7.6
		c0-0.4,0.2-0.6,0.4-0.8c0.2-0.2,0.6-0.4,1-0.4H-9c0.4,0,0.6,0.2,1,0.4C-7.8,15.3-7.6,15.7-7.6,15.9z M-7.6,31.3v7.6
		c0,0.4-0.2,0.6-0.4,0.8c-0.2,0.2-0.6,0.4-1,0.4h-7.6c-0.4,0-0.6-0.2-1-0.4c-0.2-0.2-0.4-0.6-0.4-0.8v-7.6c0-0.4,0.2-0.6,0.4-1
		c0.2-0.2,0.6-0.4,1-0.4H-9c0.4,0,0.6,0.2,1,0.4C-7.8,30.7-7.6,30.9-7.6,31.3z M-7.6,46.7v7.6c0,0.4-0.2,0.6-0.4,1
		c-0.2,0.2-0.6,0.4-1,0.4h-7.6c-0.4,0-0.6-0.2-1-0.4c-0.4-0.2-0.4-0.6-0.4-1v-7.6c0-0.4,0.2-0.6,0.4-1c0.4-0.2,0.6-0.2,1-0.2H-9
		c0.4,0,0.8,0,1,0.4C-7.8,46.1-7.6,46.3-7.6,46.7z M53.8,0.7v7.6c0,0.4-0.2,0.6-0.4,1c-0.2,0.2-0.4,0.2-0.8,0.2H-1.2
		c-0.4,0-0.6,0-1-0.4c-0.2-0.2-0.2-0.4-0.2-0.8V0.7c0-0.4,0.2-0.6,0.4-0.8c0.2-0.4,0.4-0.6,0.8-0.6h53.8c0.4,0,0.6,0.2,1,0.4
		C53.8-0.1,53.8,0.3,53.8,0.7z M53.8,15.9v7.6c0,0.4-0.2,0.6-0.4,0.8c-0.2,0.2-0.6,0.4-1,0.4H-1.2c-0.4,0-0.6-0.2-0.8-0.4
		s-0.4-0.6-0.4-0.8v-7.6c0-0.4,0.2-0.6,0.4-0.8c0.2-0.2,0.6-0.4,0.8-0.4h53.8c0.4,0,0.6,0.2,1,0.4C53.8,15.3,53.8,15.7,53.8,15.9z
		 M53.8,31.3v7.6c0,0.4-0.2,0.6-0.4,0.8c-0.2,0.2-0.6,0.4-1,0.4H-1.2c-0.4,0-0.6-0.2-0.8-0.4s-0.4-0.6-0.4-0.8v-7.6
		c0-0.4,0.2-0.6,0.4-1c0.2-0.2,0.6-0.4,0.8-0.4h53.8c0.4,0,0.6,0.2,1,0.4C53.8,30.7,53.8,30.9,53.8,31.3z M53.8,46.7v7.6
		c0,0.4-0.2,0.6-0.4,1c-0.2,0.2-0.6,0.4-1,0.4H-1.2c-0.4,0-0.6-0.2-0.8-0.4s-0.4-0.6-0.4-1v-7.6c0-0.4,0.2-0.6,0.4-1
		c0.2-0.2,0.4-0.2,0.8-0.2h53.8c0.4,0,0.6,0.2,1,0.4C53.8,46.1,53.8,46.3,53.8,46.7z"/>
</g>
<circle fill="#C95149" cx="42.8" cy="-1.6" r="15.2"/>
<path fill="#FFFFFF" d="M50,3.7c0.5-0.5,0.5-1.3,0-1.8l-3.6-3.6L50-5.2c0.5-0.5,0.5-1.3,0-1.8l-1.8-1.8c-0.5-0.5-1.3-0.5-1.8,0
	l-3.6,3.6l-3.6-3.6c-0.5-0.5-1.3-0.5-1.8,0L35.6-7c-0.5,0.5-0.5,1.3,0,1.8l3.6,3.6l-3.6,3.6c-0.5,0.5-0.5,1.3,0,1.8l1.8,1.8
	c0.5,0.5,1.3,0.5,1.8,0l3.6-3.6l3.6,3.6c0.5,0.5,1.3,0.5,1.8,0L50,3.7z"/>
</svg>
