<?xml version="1.0" encoding="utf-8"?>
<!-- Generator: Adobe Illustrator 17.1.0, SVG Export Plug-In . SVG Version: 6.00 Build 0)  -->
<!DOCTYPE svg PUBLIC "-//W3C//DTD SVG 1.1//EN" "http://www.w3.org/Graphics/SVG/1.1/DTD/svg11.dtd">
<svg version="1.1" id="email" xmlns="http://www.w3.org/2000/svg" xmlns:xlink="http://www.w3.org/1999/xlink" x="0px" y="0px"
	 viewBox="0 0 36 36" enable-background="new 0 0 36 36" xml:space="preserve">
<g>
	<path fill="#FFFFFF" d="M5.2,4.6v3.8c0,0.2-0.1,0.3-0.2,0.5C4.9,9,4.7,9,4.6,9H0.7C0.5,9,0.4,9,0.3,8.8S0.1,8.6,0.1,8.4V4.6
		c0-0.2,0.1-0.3,0.2-0.4C0.4,4,0.5,3.9,0.7,3.9h3.8C4.7,3.9,4.9,4,5,4.1C5.1,4.2,5.2,4.4,5.2,4.6z M5.2,12.2v3.8
		c0,0.2-0.1,0.3-0.2,0.4c-0.1,0.1-0.3,0.2-0.5,0.2H0.7c-0.2,0-0.3-0.1-0.5-0.2c-0.1-0.1-0.2-0.3-0.2-0.4v-3.8c0-0.2,0.1-0.3,0.2-0.4
		c0.1-0.1,0.3-0.2,0.5-0.2h3.8c0.2,0,0.3,0.1,0.5,0.2C5.1,11.9,5.2,12.1,5.2,12.2z M5.2,19.9v3.8c0,0.2-0.1,0.3-0.2,0.4
		c-0.1,0.1-0.3,0.2-0.5,0.2H0.7c-0.2,0-0.3-0.1-0.5-0.2c-0.1-0.1-0.2-0.3-0.2-0.4v-3.8c0-0.2,0.1-0.3,0.2-0.5
		c0.1-0.1,0.3-0.2,0.5-0.2h3.8c0.2,0,0.3,0.1,0.5,0.2C5.1,19.6,5.2,19.7,5.2,19.9z M5.2,27.6v3.8c0,0.2-0.1,0.3-0.2,0.5
		c-0.1,0.1-0.3,0.2-0.5,0.2H0.7c-0.2,0-0.3-0.1-0.5-0.2s-0.2-0.3-0.2-0.5v-3.8c0-0.2,0.1-0.3,0.2-0.5C0.4,27,0.5,27,0.7,27h3.8
		C4.7,27,4.9,27,5,27.2C5.1,27.3,5.2,27.4,5.2,27.6z M35.9,4.6v3.8c0,0.2-0.1,0.3-0.2,0.5C35.6,9,35.5,9,35.3,9H8.4
		C8.2,9,8.1,9,7.9,8.8C7.8,8.7,7.8,8.6,7.8,8.4V4.6c0-0.2,0.1-0.3,0.2-0.4C8.1,4,8.2,3.9,8.4,3.9h26.9c0.2,0,0.3,0.1,0.5,0.2
		C35.9,4.2,35.9,4.4,35.9,4.6z M35.9,12.2v3.8c0,0.2-0.1,0.3-0.2,0.4c-0.1,0.1-0.3,0.2-0.5,0.2H8.4c-0.2,0-0.3-0.1-0.4-0.2
		c-0.1-0.1-0.2-0.3-0.2-0.4v-3.8c0-0.2,0.1-0.3,0.2-0.4c0.1-0.1,0.3-0.2,0.4-0.2h26.9c0.2,0,0.3,0.1,0.5,0.2
		C35.9,11.9,35.9,12.1,35.9,12.2z M35.9,19.9v3.8c0,0.2-0.1,0.3-0.2,0.4c-0.1,0.1-0.3,0.2-0.5,0.2H8.4c-0.2,0-0.3-0.1-0.4-0.2
		c-0.1-0.1-0.2-0.3-0.2-0.4v-3.8c0-0.2,0.1-0.3,0.2-0.5c0.1-0.1,0.3-0.2,0.4-0.2h26.9c0.2,0,0.3,0.1,0.5,0.2
		C35.9,19.6,35.9,19.7,35.9,19.9z M35.9,27.6v3.8c0,0.2-0.1,0.3-0.2,0.5c-0.1,0.1-0.3,0.2-0.5,0.2H8.4c-0.2,0-0.3-0.1-0.4-0.2
		c-0.1-0.1-0.2-0.3-0.2-0.5v-3.8c0-0.2,0.1-0.3,0.2-0.5C8.1,27,8.2,27,8.4,27h26.9c0.2,0,0.3,0.1,0.5,0.2
		C35.9,27.3,35.9,27.4,35.9,27.6z"/>
</g>
</svg>
