<?xml version="1.0" encoding="utf-8"?>
<!-- Generator: Adobe Illustrator 17.1.0, SVG Export Plug-In . SVG Version: 6.00 Build 0)  -->
<!DOCTYPE svg PUBLIC "-//W3C//DTD SVG 1.1//EN" "http://www.w3.org/Graphics/SVG/1.1/DTD/svg11.dtd">
<svg version="1.1" id="Layer_1" xmlns="http://www.w3.org/2000/svg" xmlns:xlink="http://www.w3.org/1999/xlink" x="0px" y="0px"
	 viewBox="0 0 36 36" enable-background="new 0 0 36 36" xml:space="preserve">
<path fill="#FFFFFF" d="M36,4.3V32c0,0.8-0.3,1.4-0.8,1.9c-0.5,0.5-1.2,0.8-1.9,0.8H2.8c-0.7,0-1.4-0.3-1.9-0.8
	C0.3,33.4,0,32.8,0,32V4.3c0-0.7,0.3-1.4,0.8-1.9S2,1.6,2.8,1.6h30.5c0.7,0,1.4,0.3,1.9,0.8C35.7,2.9,36,3.6,36,4.3z M2.8,32h30.5
	V9.9H2.8V32z M33.2,5c0-0.6-0.5-1.1-1.1-1.1H9.4C8.8,3.9,8.4,4.4,8.4,5v1.7c0,0.6,0.5,1.1,1.1,1.1h22.7c0.6,0,1.1-0.5,1.1-1.1V5z
	 M4.7,7.8c1.1,0,1.9-0.9,1.9-1.9S5.8,3.9,4.7,3.9S2.8,4.7,2.8,5.8S3.7,7.8,4.7,7.8z"/>
</svg>
