<?xml version="1.0" encoding="utf-8"?>
<!-- Generator: Adobe Illustrator 17.1.0, SVG Export Plug-In . SVG Version: 6.00 Build 0)  -->
<!DOCTYPE svg PUBLIC "-//W3C//DTD SVG 1.1//EN" "http://www.w3.org/Graphics/SVG/1.1/DTD/svg11.dtd">
<svg version="1.1" id="email" xmlns="http://www.w3.org/2000/svg" xmlns:xlink="http://www.w3.org/1999/xlink" x="0px" y="0px"
	 viewBox="0 0 36 36" enable-background="new 0 0 36 36" xml:space="preserve">
<text transform="matrix(1 0 0 1 7.6665 -38.6665)" font-family="'FontAwesome'" font-size="12"></text>
<g>
	<path fill="#FFFFFF" d="M26.5,9c1.3,1.6,1.9,3.3,1.9,5.2c0,1.9-0.6,3.6-1.9,5.2c-1.3,1.6-3,2.8-5.2,3.7s-4.5,1.4-7.1,1.4
		c-1.2,0-2.3-0.1-3.5-0.3c-1.7,1.2-3.5,2-5.6,2.6c-0.5,0.1-1.1,0.2-1.7,0.3H3.4c-0.1,0-0.3-0.1-0.4-0.2s-0.2-0.2-0.2-0.4
		c0,0,0-0.1,0-0.1s0-0.1,0-0.1c0,0,0-0.1,0-0.1c0,0,0-0.1,0-0.1s0-0.1,0.1-0.1s0.1-0.1,0.1-0.1c0,0,0-0.1,0.1-0.1
		c0,0,0.1-0.1,0.1-0.1c0.1-0.1,0.2-0.2,0.5-0.5c0.2-0.3,0.4-0.5,0.5-0.6s0.3-0.3,0.5-0.6c0.2-0.2,0.4-0.5,0.5-0.8
		c0.1-0.3,0.3-0.6,0.4-0.9c-1.7-1-3-2.2-3.9-3.6c-1-1.4-1.4-2.9-1.4-4.5c0-1.9,0.6-3.6,1.9-5.2s3-2.8,5.2-3.7
		c2.2-0.9,4.5-1.4,7.1-1.4c2.6,0,4.9,0.5,7.1,1.4C23.5,6.2,25.3,7.4,26.5,9z M36.1,19.3c0,1.6-0.5,3.1-1.4,4.5
		c-1,1.4-2.3,2.6-3.9,3.5c0.1,0.3,0.3,0.6,0.4,0.9s0.3,0.5,0.5,0.8s0.3,0.4,0.5,0.6c0.1,0.1,0.3,0.3,0.5,0.6
		c0.2,0.3,0.4,0.4,0.5,0.5c0,0,0,0,0.1,0.1c0,0,0.1,0.1,0.1,0.1c0,0,0,0.1,0.1,0.1s0.1,0.1,0.1,0.1c0,0,0,0.1,0,0.1c0,0,0,0.1,0,0.1
		c0,0,0,0.1,0,0.1c0,0,0,0.1,0,0.1c0,0.2-0.1,0.3-0.3,0.4c-0.1,0.1-0.3,0.2-0.4,0.1c-0.7-0.1-1.2-0.2-1.7-0.3
		c-2.1-0.5-3.9-1.4-5.6-2.6c-1.2,0.2-2.4,0.3-3.5,0.3c-3.6,0-6.8-0.9-9.5-2.7c0.8,0.1,1.4,0.1,1.8,0.1c2.2,0,4.2-0.3,6.2-0.9
		c2-0.6,3.8-1.5,5.3-2.6c1.7-1.2,3-2.7,3.9-4.3s1.3-3.3,1.3-5.1c0-1-0.2-2-0.5-3.1c1.7,1,3.1,2.1,4.1,3.6S36.1,17.6,36.1,19.3z"/>
</g>
</svg>
