<?xml version="1.0" encoding="utf-8"?>
<!-- Generator: Adobe Illustrator 17.1.0, SVG Export Plug-In . SVG Version: 6.00 Build 0)  -->
<!DOCTYPE svg PUBLIC "-//W3C//DTD SVG 1.1//EN" "http://www.w3.org/Graphics/SVG/1.1/DTD/svg11.dtd">
<svg version="1.1" id="Layer_1" xmlns="http://www.w3.org/2000/svg" xmlns:xlink="http://www.w3.org/1999/xlink" x="0px" y="0px"
	 viewBox="0 0 36 36" enable-background="new 0 0 36 36" xml:space="preserve">
<g>
	<path fill="#FFFFFF" d="M35.7,7c-1,1.5-2.2,2.7-3.6,3.8c0,0.2,0,0.5,0,0.9c0,1.9-0.3,3.9-0.9,5.8c-0.6,1.9-1.4,3.8-2.6,5.6
		c-1.2,1.8-2.5,3.4-4.1,4.7c-1.6,1.4-3.5,2.5-5.8,3.3c-2.3,0.8-4.7,1.2-7.3,1.2c-4.1,0-7.8-1.1-11.2-3.3c0.5,0.1,1.1,0.1,1.8,0.1
		c3.4,0,6.4-1,9-3.1c-1.6,0-3-0.5-4.2-1.5c-1.2-0.9-2.1-2.1-2.6-3.6c0.5,0.1,1,0.1,1.4,0.1c0.6,0,1.3-0.1,1.9-0.2
		c-1.7-0.3-3.1-1.2-4.2-2.5s-1.7-2.9-1.7-4.6v-0.1c1,0.6,2.1,0.9,3.3,0.9c-1-0.7-1.8-1.5-2.4-2.6C2.1,11,1.8,9.8,1.8,8.6
		c0-1.3,0.3-2.5,1-3.7c1.8,2.2,4,4,6.6,5.4s5.4,2.1,8.4,2.2c-0.1-0.6-0.2-1.1-0.2-1.7c0-2,0.7-3.7,2.1-5.1s3.1-2.1,5.1-2.1
		c2.1,0,3.9,0.8,5.3,2.3c1.6-0.3,3.2-0.9,4.6-1.8c-0.6,1.7-1.6,3.1-3.2,4C32.9,8,34.3,7.6,35.7,7z"/>
</g>
</svg>
