<?xml version="1.0" encoding="utf-8"?>
<!-- Generator: Adobe Illustrator 17.1.0, SVG Export Plug-In . SVG Version: 6.00 Build 0)  -->
<!DOCTYPE svg PUBLIC "-//W3C//DTD SVG 1.1//EN" "http://www.w3.org/Graphics/SVG/1.1/DTD/svg11.dtd">
<svg version="1.1" id="Layer_1" xmlns="http://www.w3.org/2000/svg" xmlns:xlink="http://www.w3.org/1999/xlink" x="0px" y="0px"
	 viewBox="0 0 150 150" enable-background="new 0 0 150 150" xml:space="preserve">
<g>
	<path fill="#FFFFFF" d="M148.9,45.9c-1.9-5.2-6.8-8.6-10.8-7.5c0,0-0.1,0-0.1,0.1l6.3,19.1c0.3,0,0.5,0,0.8-0.1
		C149.1,56.3,150.8,51.1,148.9,45.9z"/>
	<path fill="#FFFFFF" d="M147.2,89.9c0,0-26.7-2.1-41.1-2s-33.3,2.5-33.3,2.5l-15-44.6c0,0,14.2-6.3,24.8-12.9s37.3-26,37.3-26
		L147.2,89.9z"/>
	<path fill="#FFFFFF" d="M7.6,68.6c-4.5,1.2-8.5,5.8-7.1,9.7l4.7,13.2c1.4,3.9,7.7,5.8,12.2,4.6c0,0,0,0,0,0L7.6,68.6z"/>
	<path fill="#FFFFFF" d="M37.9,53.9c-9.7,3.8-19,7.1-27.7,9.8l12.4,34.6c0,0.4,12.1-3.7,17.1-2.1c8.1,2.6,9.6,8.1,11.7,14.4
		c3,9,11.7,34.5,11.7,34.5l20.8-5.2L53.5,47.3C48.4,49.6,43.2,51.7,37.9,53.9z"/>
</g>
</svg>
