<?xml version="1.0" encoding="utf-8"?>
<!-- Generator: Adobe Illustrator 17.1.0, SVG Export Plug-In . SVG Version: 6.00 Build 0)  -->
<!DOCTYPE svg PUBLIC "-//W3C//DTD SVG 1.1//EN" "http://www.w3.org/Graphics/SVG/1.1/DTD/svg11.dtd">
<svg version="1.1" id="Layer_1" xmlns="http://www.w3.org/2000/svg" xmlns:xlink="http://www.w3.org/1999/xlink" x="0px" y="0px"
	 viewBox="0 0 36 36" enable-background="new 0 0 36 36" xml:space="preserve">
<g>
	<path fill="#FFFFFF" d="M33.5,9c1.6,2.7,2.4,5.7,2.4,9s-0.8,6.3-2.4,9c-1.6,2.7-3.8,4.9-6.5,6.5c-2.7,1.6-5.7,2.4-9,2.4
		c-3.3,0-6.3-0.8-9-2.4c-2.7-1.6-4.9-3.8-6.5-6.5c-1.6-2.7-2.4-5.7-2.4-9s0.8-6.3,2.4-9C4.1,6.2,6.3,4,9,2.4C11.8,0.8,14.8,0,18,0
		c3.3,0,6.3,0.8,9,2.4C29.8,4,31.9,6.2,33.5,9z M29,24.3c1.1-1.9,1.7-4.1,1.7-6.4s-0.6-4.4-1.7-6.4c-1.1-1.9-2.7-3.5-4.6-4.6
		c-1.9-1.1-4.1-1.7-6.4-1.7c-2.3,0-4.4,0.6-6.4,1.7C9.7,8.1,8.2,9.6,7,11.6S5.3,15.7,5.3,18s0.6,4.4,1.7,6.4s2.7,3.5,4.6,4.6
		c1.9,1.1,4.1,1.7,6.4,1.7c2.3,0,4.4-0.6,6.4-1.7C26.3,27.8,27.9,26.3,29,24.3z M27.7,18c0,0.6-0.3,1-0.7,1.3l-12.7,7.5
		c-0.2,0.1-0.5,0.2-0.7,0.2c-0.2,0-0.5-0.1-0.7-0.2C12.3,26.4,12,26,12,25.4V10.5c0-0.6,0.2-1,0.7-1.3c0.5-0.3,1-0.3,1.5,0L27,16.7
		C27.5,17,27.7,17.4,27.7,18z"/>
</g>
</svg>
