<?xml version="1.0" encoding="utf-8"?>
<!-- Generator: Adobe Illustrator 17.1.0, SVG Export Plug-In . SVG Version: 6.00 Build 0)  -->
<!DOCTYPE svg PUBLIC "-//W3C//DTD SVG 1.1//EN" "http://www.w3.org/Graphics/SVG/1.1/DTD/svg11.dtd">
<svg version="1.1" id="Layer_1" xmlns="http://www.w3.org/2000/svg" xmlns:xlink="http://www.w3.org/1999/xlink" x="0px" y="0px"
	 viewBox="0 0 36 36" enable-background="new 0 0 36 36" xml:space="preserve">
<g>
	<path fill="#FFFFFF" d="M33.5,9c1.6,2.7,2.4,5.7,2.4,9s-0.8,6.3-2.4,9c-1.6,2.7-3.8,4.9-6.5,6.5c-2.7,1.6-5.7,2.4-9,2.4
		c-3.3,0-6.3-0.8-9-2.4c-2.7-1.6-4.9-3.8-6.5-6.5s-2.4-5.7-2.4-9s0.8-6.3,2.4-9S6.2,4.1,9,2.5s5.7-2.4,9-2.4c3.3,0,6.3,0.8,9,2.4
		C29.7,4.1,31.9,6.2,33.5,9z M29,24.4c1.1-1.9,1.7-4.1,1.7-6.4s-0.6-4.4-1.7-6.4c-1.1-1.9-2.7-3.5-4.6-4.6c-1.9-1.1-4.1-1.7-6.4-1.7
		c-2.3,0-4.4,0.6-6.4,1.7C9.7,8.1,8.1,9.7,7,11.6c-1.1,1.9-1.7,4.1-1.7,6.4s0.6,4.4,1.7,6.4c1.1,1.9,2.7,3.5,4.6,4.6
		c1.9,1.1,4.1,1.7,6.4,1.7c2.3,0,4.4-0.6,6.4-1.7C26.3,27.9,27.9,26.3,29,24.4z M21,9.8v10.5c0,0.2-0.1,0.4-0.2,0.5
		c-0.1,0.1-0.3,0.2-0.5,0.2h-7.5c-0.2,0-0.4-0.1-0.5-0.2c-0.1-0.1-0.2-0.3-0.2-0.5v-1.5c0-0.2,0.1-0.4,0.2-0.5
		c0.1-0.1,0.3-0.2,0.5-0.2H18V9.8c0-0.2,0.1-0.4,0.2-0.5S18.5,9,18.7,9h1.5c0.2,0,0.4,0.1,0.5,0.2S21,9.6,21,9.8z"/>
</g>
</svg>
