<?xml version="1.0" encoding="utf-8"?>
<!-- Generator: Adobe Illustrator 17.1.0, SVG Export Plug-In . SVG Version: 6.00 Build 0)  -->
<!DOCTYPE svg PUBLIC "-//W3C//DTD SVG 1.1//EN" "http://www.w3.org/Graphics/SVG/1.1/DTD/svg11.dtd">
<svg version="1.1" id="Layer_1" xmlns="http://www.w3.org/2000/svg" xmlns:xlink="http://www.w3.org/1999/xlink" x="0px" y="0px"
	 viewBox="0 0 36 36" enable-background="new 0 0 36 36" xml:space="preserve">
<path fill="#FFFFFF" d="M35.9,5.5v20.3c0,0.8-0.3,1.5-0.9,2.1c-0.6,0.6-1.3,0.9-2.1,0.9H22.8c0,0.5,0.1,0.9,0.3,1.4
	c0.2,0.5,0.4,0.9,0.6,1.3c0.2,0.4,0.3,0.7,0.3,0.8c0,0.3-0.1,0.6-0.4,0.8c-0.2,0.2-0.5,0.4-0.8,0.4h-9.6c-0.3,0-0.6-0.1-0.8-0.4
	c-0.2-0.2-0.4-0.5-0.4-0.8c0-0.2,0.1-0.4,0.3-0.8c0.2-0.4,0.4-0.8,0.6-1.3c0.2-0.5,0.3-1,0.3-1.5H3.1c-0.8,0-1.5-0.3-2.1-0.9
	c-0.6-0.6-0.9-1.3-0.9-2.1V5.5c0-0.8,0.3-1.5,0.9-2.1c0.6-0.6,1.3-0.9,2.1-0.9h29.9c0.8,0,1.5,0.3,2.1,0.9
	C35.6,3.9,35.9,4.6,35.9,5.5z M33.5,21V5.5c0-0.2-0.1-0.3-0.2-0.4c-0.1-0.1-0.3-0.2-0.4-0.2H3.1C2.9,4.9,2.8,4.9,2.6,5
	C2.5,5.2,2.5,5.3,2.5,5.5V21c0,0.2,0.1,0.3,0.2,0.4c0.1,0.1,0.3,0.2,0.4,0.2h29.9c0.2,0,0.3-0.1,0.4-0.2
	C33.5,21.3,33.5,21.1,33.5,21z"/>
<g>
	<path fill="#FFFFFF" d="M15.4,8.8c0.8-0.5,1.6-0.7,2.6-0.7c0.9,0,1.8,0.2,2.6,0.7c0.8,0.5,1.4,1.1,1.9,1.9s0.7,1.6,0.7,2.6
		s-0.2,1.8-0.7,2.6c-0.5,0.8-1.1,1.4-1.9,1.9c-0.8,0.5-1.6,0.7-2.6,0.7c-0.9,0-1.8-0.2-2.6-0.7c-0.8-0.5-1.4-1.1-1.9-1.9
		c-0.5-0.8-0.7-1.6-0.7-2.6s0.2-1.8,0.7-2.6S14.6,9.2,15.4,8.8z M20.6,13.6c0.1-0.1,0.2-0.2,0.2-0.4s-0.1-0.3-0.2-0.4l-3.6-2.1
		c-0.1-0.1-0.3-0.1-0.4,0c-0.1,0.1-0.2,0.2-0.2,0.4v4.3c0,0.2,0.1,0.3,0.2,0.4c0.1,0,0.1,0.1,0.2,0.1c0.1,0,0.1,0,0.2-0.1L20.6,13.6
		z"/>
</g>
</svg>
